<!DOCTYPE svg PUBLIC "-//W3C//DTD SVG 1.1//EN" "http://www.w3.org/Graphics/SVG/1.1/DTD/svg11.dtd">
<!-- Uploaded to: SVG Repo, www.svgrepo.com, Transformed by: SVG Repo Mixer Tools -->
<svg height="800px" width="800px" version="1.1" id="_x32_" xmlns="http://www.w3.org/2000/svg" xmlns:xlink="http://www.w3.org/1999/xlink" viewBox="-51.2 -51.2 614.40 614.40" xml:space="preserve" fill="#33a62b" stroke="#33a62b" stroke-width="0.00512">
<g id="SVGRepo_bgCarrier" stroke-width="0">
<path transform="translate(-51.2, -51.2), scale(19.2)" d="M16,27.921894678846C19.583734292829718,28.30145961102688,22.947126663151415,26.1495546237115,25.1939342659827,23.331917916255282C27.440626153140336,20.514426323462775,28.611073452042397,16.81254562701569,27.621832622586055,13.347392543440172C26.68378231301872,10.061551698665705,23.504391357463938,8.290826819902108,20.458031044434136,6.742803149648799C17.29107953434579,5.133500442023464,13.6927066814161,3.0256526264713823,10.543174140597719,4.668784345581932C7.443694024844879,6.285803387278384,7.082349747890243,10.409655168421006,6.757500114225058,13.890459714020162C6.495797299055007,16.694638183800702,7.4126225654607865,19.260757657112883,8.961863451152759,21.612726605026314C10.785294114849336,24.380954799424885,12.703623953008268,27.572764791280832,16,27.921894678846" fill="#ffde05" strokewidth="0"/>
</g>
<g id="SVGRepo_tracerCarrier" stroke-linecap="round" stroke-linejoin="round"/>
<g id="SVGRepo_iconCarrier"> <style type="text/css"> .st0{fill:#22b95c;} </style> <g> <path class="st0" d="M469.402,35.492C334.09,110.664,197.114,324.5,197.114,324.5L73.509,184.176L0,254.336l178.732,222.172 l65.15-2.504C327.414,223.414,512,55.539,512,55.539L469.402,35.492z"/> </g> </g>
</svg>