<svg width="800" height="800" viewBox="0 0 800 800" fill="none" xmlns="http://www.w3.org/2000/svg">
<path d="M567 512.939C567 489.58 551.032 470.644 531.335 470.644C521.47 470.644 512.559 475.413 506.104 483.091C486.16 467.836 460.68 458.115 432.695 456.598C432.713 442.507 438.034 429.371 447.304 420.552C456.591 411.718 468.584 408.409 480.201 411.469L481.796 411.889C481.781 412.363 481.736 412.828 481.736 413.307C481.736 432.807 495.066 448.614 511.508 448.614C527.95 448.614 541.279 432.807 541.279 413.307C541.279 393.807 527.95 378 511.508 378C500.935 378 491.674 384.554 486.392 394.404L483.539 393.653C467.34 389.384 450.621 393.999 437.675 406.316C424.745 418.617 417.324 436.942 417.307 456.598C389.329 458.114 363.853 467.831 343.911 483.079C337.456 475.399 328.531 470.643 318.664 470.643C298.968 470.644 283 489.58 283 512.939C283 529.215 290.766 543.315 302.131 550.386C301.268 555.622 300.814 560.975 300.814 566.424C300.814 627.199 356.413 676.466 425 676.466C493.586 676.466 549.186 627.199 549.186 566.424C549.186 560.978 548.732 555.627 547.87 550.394C559.236 543.322 567 529.216 567 512.939ZM511.508 396.251C519.439 396.251 525.891 403.902 525.891 413.308C525.891 422.713 519.439 430.364 511.508 430.364C503.577 430.364 497.125 422.713 497.125 413.308C497.125 403.902 503.578 396.251 511.508 396.251ZM298.389 512.939C298.389 499.68 307.484 488.894 318.664 488.894C323.452 488.894 327.848 490.883 331.315 494.191C320.468 505.227 312.071 518.199 306.857 532.443C301.736 528.081 298.389 520.973 298.389 512.939ZM503.602 629.615C482.789 648.058 454.874 658.215 425 658.215C395.127 658.215 367.212 648.058 346.399 629.615C326.927 612.361 316.203 589.919 316.203 566.424C316.203 542.928 326.927 520.486 346.399 503.233C367.212 484.79 395.127 474.632 425 474.632C454.874 474.632 482.789 484.79 503.602 503.233C523.074 520.486 533.798 542.928 533.798 566.424C533.797 589.919 523.074 612.361 503.602 629.615ZM543.138 532.432C537.923 518.191 529.526 505.222 518.681 494.188C522.149 490.88 526.547 488.894 531.336 488.894C542.516 488.894 551.611 499.68 551.611 512.939C551.611 520.972 548.259 528.072 543.138 532.432Z" fill="#D6D6D6"/>
<path d="M379.641 559.988C388.61 559.988 395.88 551.366 395.88 540.73C395.88 530.094 388.61 521.472 379.641 521.472C370.673 521.472 363.403 530.094 363.403 540.73C363.403 551.366 370.673 559.988 379.641 559.988Z" fill="#D80000"/>
<path d="M470.358 559.988C479.326 559.988 486.597 551.366 486.597 540.73C486.597 530.094 479.326 521.472 470.358 521.472C461.39 521.472 454.119 530.094 454.119 540.73C454.119 551.366 461.39 559.988 470.358 559.988Z" fill="#D80000"/>
<path d="M463.481 587.522C452.034 599.89 437.195 606.701 421.696 606.701C404.293 606.701 388.168 598.384 376.294 583.281C373.396 579.594 368.527 579.393 365.419 582.83C362.311 586.266 362.141 592.041 365.039 595.727C379.642 614.299 400.293 624.951 421.696 624.951C441.039 624.951 459.559 616.449 473.846 601.011C476.986 597.617 477.214 591.845 474.351 588.121C471.49 584.398 466.627 584.126 463.481 587.522Z" fill="#D6D6D6"/>
</svg>
