<svg width="1276" height="800" viewBox="0 0 1276 800" fill="none" xmlns="http://www.w3.org/2000/svg">
<path d="M414.84 609.192H396.984L375.864 575.112L371.352 571.848L372.792 568.968H378.168C382.52 568.968 385.944 567.88 388.44 565.704C391 563.464 392.28 560.424 392.28 556.584C392.28 551.528 390.872 547.336 388.056 544.008C385.24 540.616 381.144 538.92 375.768 538.92C372.184 538.92 368.888 539.976 365.88 542.088V601.896L375.96 605.352L374.04 609.192H344.856V606.216L353.88 599.112V540.744L343.896 537.48L345.816 533.64H356.952C362.776 533.64 368.504 533.448 374.136 533.064C378.232 532.808 381.272 532.68 383.256 532.68C387.544 532.68 391.352 533.544 394.68 535.272C398.072 537 400.664 539.336 402.456 542.28C404.312 545.224 405.24 548.456 405.24 551.976C405.24 555.176 404.248 558.248 402.264 561.192C400.28 564.072 397.656 566.6 394.392 568.776C391.192 570.888 387.8 572.488 384.216 573.576L390.456 575.688L405.336 599.688L416.76 605.352L414.84 609.192ZM454.641 609.192C452.081 609.704 449.009 609.96 445.425 609.96C441.201 609.96 437.393 608.872 434.001 606.696C430.673 604.456 428.049 601.448 426.129 597.672C424.273 593.896 423.345 589.736 423.345 585.192C423.345 580.264 424.849 575.656 427.857 571.368C430.865 567.016 434.609 563.56 439.089 561C443.633 558.376 448.017 557.064 452.241 557.064C458.321 557.064 463.025 559.464 466.353 564.264C469.745 569.064 471.441 575.4 471.441 583.272H435.921C436.305 588.712 437.777 593.16 440.337 596.616C442.961 600.072 446.513 601.8 450.993 601.8C455.153 601.8 461.073 598.568 468.753 592.104L471.633 595.752L454.641 609.192ZM446.673 565.128C439.761 565.128 436.145 569.864 435.825 579.336H458.289C457.713 575.88 457.105 573.256 456.465 571.464C455.889 569.608 454.833 568.104 453.297 566.952C451.825 565.736 449.617 565.128 446.673 565.128ZM541.577 609H523.337V602.088L514.409 609.192C512.361 609.704 509.897 609.96 507.017 609.96C502.793 609.96 498.985 608.872 495.593 606.696C492.265 604.456 489.641 601.448 487.721 597.672C485.865 593.896 484.937 589.736 484.937 585.192C484.937 580.264 486.441 575.656 489.449 571.368C492.457 567.016 496.201 563.56 500.681 561C505.225 558.376 509.609 557.064 513.833 557.064C517.353 557.064 520.553 558.056 523.433 560.04V540.264L514.889 534.312V531.336L531.305 525.192H534.953V601.8L543.497 605.16L541.577 609ZM511.913 601.8C513.833 601.8 515.657 601.544 517.385 601.032C519.177 600.456 521.161 599.4 523.337 597.864V575.976C522.953 572.776 521.449 570.184 518.825 568.2C516.265 566.152 512.745 565.128 508.265 565.128C501.033 565.128 497.417 570.28 497.417 580.584C497.417 586.6 498.665 591.656 501.161 595.752C503.657 599.784 507.241 601.8 511.913 601.8ZM609.264 609H591.024V602.088L582.096 609.192C580.048 609.704 577.584 609.96 574.704 609.96C570.48 609.96 566.672 608.872 563.28 606.696C559.952 604.456 557.328 601.448 555.408 597.672C553.552 593.896 552.624 589.736 552.624 585.192C552.624 580.264 554.128 575.656 557.136 571.368C560.144 567.016 563.888 563.56 568.368 561C572.912 558.376 577.296 557.064 581.52 557.064C585.04 557.064 588.24 558.056 591.12 560.04V540.264L582.576 534.312V531.336L598.992 525.192H602.64V601.8L611.184 605.16L609.264 609ZM579.6 601.8C581.52 601.8 583.344 601.544 585.072 601.032C586.864 600.456 588.848 599.4 591.024 597.864V575.976C590.64 572.776 589.136 570.184 586.512 568.2C583.952 566.152 580.432 565.128 575.952 565.128C568.72 565.128 565.104 570.28 565.104 580.584C565.104 586.6 566.352 591.656 568.848 595.752C571.344 599.784 574.928 601.8 579.6 601.8ZM645.752 609H618.968V606.024L627.512 599.304V571.272L618.968 565.32V562.344L635.384 556.2H639.031V601.8L647.672 605.16L645.752 609ZM632.888 527.4C634.808 527.4 636.376 528.104 637.592 529.512C638.872 530.92 639.512 532.68 639.512 534.792C639.512 536.264 639.064 537.672 638.168 539.016C637.272 540.296 636.152 541.32 634.808 542.088C633.464 542.856 632.152 543.24 630.872 543.24C628.952 543.24 627.352 542.536 626.072 541.128C624.856 539.72 624.248 537.96 624.248 535.848C624.248 534.376 624.696 533 625.592 531.72C626.488 530.376 627.608 529.32 628.952 528.552C630.296 527.784 631.608 527.4 632.888 527.4ZM683.64 609.192C682.168 609.704 680.376 609.96 678.264 609.96C672.952 609.96 669.048 608.584 666.552 605.832C664.12 603.016 662.904 598.696 662.904 592.872V564.84H652.536V560.904L670.776 539.688H674.424V560.904H691.704V564.84H674.424V594.024C674.424 599.208 676.92 601.8 681.912 601.8C683.256 601.8 684.536 601.512 685.752 600.936C687.032 600.36 688.6 599.336 690.456 597.864L693.336 601.512L683.64 609.192ZM761.53 557.16C763.642 557.16 765.498 557.736 767.098 558.888C768.698 560.04 769.946 561.64 770.842 563.688L764.506 571.656H760.858C760.602 570.056 760.122 568.936 759.418 568.296C758.778 567.592 757.882 567.24 756.73 567.24C755.322 567.24 753.818 567.624 752.218 568.392C750.682 569.096 748.922 570.472 746.938 572.52V601.128L760.378 605.256L758.458 609.096H726.874V606.12L735.418 599.4V572.232L726.874 567.24V564.264L743.29 556.2L746.266 568.008L756.25 557.832C757.594 557.32 759.354 557.064 761.53 557.064V557.16ZM778.191 622.44L773.295 621.48L798.543 518.472L803.535 519.432L778.191 622.44ZM901.02 609H882.78V576.648C882.78 573.128 882.236 570.664 881.148 569.256C880.06 567.848 878.108 567.144 875.292 567.144C873.308 567.144 871.356 567.528 869.436 568.296C867.516 569 865.244 570.44 862.62 572.616V601.8L871.26 605.16L869.34 609H851.1V576.648C851.1 573.128 850.556 570.664 849.468 569.256C848.38 567.848 846.428 567.144 843.612 567.144C841.628 567.144 839.676 567.528 837.756 568.296C835.836 569 833.564 570.44 830.94 572.616V601.8L839.58 605.16L837.66 609H810.876V606.024L819.42 599.304V572.136L810.876 567.144V564.168L827.292 556.104L830.364 568.392L843.132 557.736C844.476 557.224 846.236 556.968 848.412 556.968C852.124 556.968 855.196 557.992 857.628 560.04C860.06 562.024 861.596 564.776 862.236 568.296L874.716 557.832C876.06 557.32 877.82 557.064 879.996 557.064C884.348 557.064 887.804 558.408 890.364 561.096C892.924 563.72 894.204 567.304 894.204 571.848V601.8L902.94 605.16L901.02 609ZM943.266 609.192C940.706 609.704 937.634 609.96 934.05 609.96C929.826 609.96 926.018 608.872 922.626 606.696C919.298 604.456 916.674 601.448 914.754 597.672C912.898 593.896 911.97 589.736 911.97 585.192C911.97 580.264 913.474 575.656 916.482 571.368C919.49 567.016 923.234 563.56 927.714 561C932.258 558.376 936.642 557.064 940.866 557.064C946.946 557.064 951.65 559.464 954.978 564.264C958.37 569.064 960.066 575.4 960.066 583.272H924.546C924.93 588.712 926.402 593.16 928.962 596.616C931.586 600.072 935.138 601.8 939.618 601.8C943.778 601.8 949.698 598.568 957.378 592.104L960.258 595.752L943.266 609.192ZM935.298 565.128C928.386 565.128 924.77 569.864 924.45 579.336H946.914C946.338 575.88 945.73 573.256 945.09 571.464C944.514 569.608 943.458 568.104 941.922 566.952C940.45 565.736 938.242 565.128 935.298 565.128ZM1062.46 609H1044.22V576.648C1044.22 573.128 1043.67 570.664 1042.59 569.256C1041.5 567.848 1039.55 567.144 1036.73 567.144C1034.75 567.144 1032.79 567.528 1030.87 568.296C1028.95 569 1026.68 570.44 1024.06 572.616V601.8L1032.7 605.16L1030.78 609H1012.54V576.648C1012.54 573.128 1011.99 570.664 1010.91 569.256C1009.82 567.848 1007.87 567.144 1005.05 567.144C1003.07 567.144 1001.11 567.528 999.194 568.296C997.274 569 995.002 570.44 992.378 572.616V601.8L1001.02 605.16L999.098 609H972.314V606.024L980.858 599.304V572.136L972.314 567.144V564.168L988.73 556.104L991.802 568.392L1004.57 557.736C1005.91 557.224 1007.67 556.968 1009.85 556.968C1013.56 556.968 1016.63 557.992 1019.07 560.04C1021.5 562.024 1023.03 564.776 1023.67 568.296L1036.15 557.832C1037.5 557.32 1039.26 557.064 1041.43 557.064C1045.79 557.064 1049.24 558.408 1051.8 561.096C1054.36 563.72 1055.64 567.304 1055.64 571.848V601.8L1064.38 605.16L1062.46 609ZM1106.62 557.16C1108.74 557.16 1110.59 557.736 1112.19 558.888C1113.79 560.04 1115.04 561.64 1115.94 563.688L1109.6 571.656H1105.95C1105.7 570.056 1105.22 568.936 1104.51 568.296C1103.87 567.592 1102.98 567.24 1101.82 567.24C1100.42 567.24 1098.91 567.624 1097.31 568.392C1095.78 569.096 1094.02 570.472 1092.03 572.52V601.128L1105.47 605.256L1103.55 609.096H1071.97V606.12L1080.51 599.4V572.232L1071.97 567.24V564.264L1088.38 556.2L1091.36 568.008L1101.34 557.832C1102.69 557.32 1104.45 557.064 1106.62 557.064V557.16ZM1148.53 609H1121.75V606.024L1130.29 599.304V571.272L1121.75 565.32V562.344L1138.16 556.2H1141.81V601.8L1150.45 605.16L1148.53 609ZM1135.67 527.4C1137.59 527.4 1139.16 528.104 1140.37 529.512C1141.65 530.92 1142.29 532.68 1142.29 534.792C1142.29 536.264 1141.84 537.672 1140.95 539.016C1140.05 540.296 1138.93 541.32 1137.59 542.088C1136.24 542.856 1134.93 543.24 1133.65 543.24C1131.73 543.24 1130.13 542.536 1128.85 541.128C1127.64 539.72 1127.03 537.96 1127.03 535.848C1127.03 534.376 1127.48 533 1128.37 531.72C1129.27 530.376 1130.39 529.32 1131.73 528.552C1133.08 527.784 1134.39 527.4 1135.67 527.4ZM1218.49 609.096H1200.25V576.744C1200.25 573.224 1199.7 570.76 1198.61 569.352C1197.53 567.944 1195.57 567.24 1192.76 567.24C1190.65 567.24 1188.53 567.624 1186.42 568.392C1184.37 569.16 1181.94 570.632 1179.13 572.808V601.896L1187.77 605.256L1185.85 609.096H1159.06V606.12L1167.61 599.4V572.232L1159.06 567.24V564.264L1175.48 556.2L1178.65 568.68L1192.28 557.832C1193.62 557.32 1195.38 557.064 1197.56 557.064C1201.91 557.064 1205.37 558.408 1207.93 561.096C1210.49 563.72 1211.77 567.304 1211.77 571.848V601.8L1220.41 605.256L1218.49 609.096ZM1256.48 557.064C1259.1 557.064 1262.14 557.448 1265.6 558.216C1269.12 558.92 1271.65 559.72 1273.18 560.616V575.4H1269.53C1267.04 572.2 1264.16 569.704 1260.89 567.912C1257.69 566.056 1254.37 565.128 1250.91 565.128C1247.97 565.128 1245.73 566.44 1244.19 569.064C1242.72 571.688 1241.98 575.528 1241.98 580.584C1241.98 586.6 1243.29 591.656 1245.92 595.752C1248.54 599.784 1252.29 601.8 1257.15 601.8C1260.8 601.8 1265.98 599.176 1272.7 593.928L1275.58 597.576L1260.8 609.192C1258.24 609.704 1255.17 609.96 1251.58 609.96C1247.36 609.96 1243.55 608.872 1240.16 606.696C1236.83 604.456 1234.21 601.448 1232.29 597.672C1230.43 593.896 1229.5 589.736 1229.5 585.192C1229.5 580.264 1230.88 575.624 1233.63 571.272C1236.45 566.92 1239.97 563.464 1244.19 560.904C1248.41 558.344 1252.51 557.064 1256.48 557.064Z" fill="white"/>
<path d="M301 509.939C301 486.58 285.032 467.644 265.335 467.644C255.47 467.644 246.559 472.413 240.104 480.091C220.16 464.836 194.68 455.115 166.695 453.598C166.713 439.507 172.034 426.371 181.304 417.552C190.591 408.718 202.584 405.409 214.201 408.469L215.796 408.889C215.781 409.363 215.736 409.828 215.736 410.307C215.736 429.807 229.066 445.614 245.508 445.614C261.95 445.614 275.279 429.807 275.279 410.307C275.279 390.807 261.95 375 245.508 375C234.935 375 225.674 381.554 220.392 391.404L217.539 390.653C201.34 386.384 184.621 390.999 171.675 403.316C158.745 415.617 151.324 433.942 151.307 453.598C123.329 455.114 97.8534 464.831 77.911 480.079C71.4559 472.399 62.5309 467.643 52.6642 467.643C32.9676 467.644 17 486.58 17 509.939C17 526.215 24.7657 540.315 36.1308 547.386C35.2676 552.622 34.8136 557.975 34.8136 563.424C34.8136 624.199 90.4135 673.466 159 673.466C227.586 673.466 283.186 624.199 283.186 563.424C283.186 557.978 282.732 552.627 281.87 547.394C293.236 540.322 301 526.216 301 509.939ZM245.508 393.251C253.439 393.251 259.891 400.902 259.891 410.308C259.891 419.713 253.439 427.364 245.508 427.364C237.577 427.364 231.125 419.713 231.125 410.308C231.125 400.902 237.578 393.251 245.508 393.251ZM32.3887 509.939C32.3887 496.68 41.4842 485.894 52.6642 485.894C57.4525 485.894 61.8475 487.883 65.3153 491.191C54.4684 502.227 46.0709 515.199 40.857 529.443C35.7362 525.081 32.3887 517.973 32.3887 509.939ZM237.602 626.615C216.789 645.058 188.874 655.215 159 655.215C129.127 655.215 101.212 645.058 80.3987 626.615C60.9269 609.361 50.2029 586.919 50.2029 563.424C50.2029 539.928 60.9269 517.486 80.3987 500.233C101.212 481.79 129.127 471.632 159 471.632C188.874 471.632 216.789 481.79 237.602 500.233C257.074 517.486 267.798 539.928 267.798 563.424C267.797 586.919 257.074 609.361 237.602 626.615ZM277.138 529.432C271.923 515.191 263.526 502.222 252.681 491.188C256.149 487.88 260.547 485.894 265.336 485.894C276.516 485.894 285.611 496.68 285.611 509.939C285.611 517.972 282.259 525.072 277.138 529.432Z" fill="#D6D6D6"/>
<path d="M113.641 556.988C122.61 556.988 129.88 548.366 129.88 537.73C129.88 527.094 122.61 518.472 113.641 518.472C104.673 518.472 97.4026 527.094 97.4026 537.73C97.4026 548.366 104.673 556.988 113.641 556.988Z" fill="#D80000"/>
<path d="M204.358 556.988C213.326 556.988 220.597 548.366 220.597 537.73C220.597 527.094 213.326 518.472 204.358 518.472C195.39 518.472 188.119 527.094 188.119 537.73C188.119 548.366 195.39 556.988 204.358 556.988Z" fill="#D80000"/>
<path d="M197.481 584.522C186.034 596.89 171.195 603.701 155.696 603.701C138.293 603.701 122.168 595.384 110.294 580.281C107.396 576.594 102.527 576.393 99.4191 579.83C96.3108 583.266 96.1409 589.041 99.039 592.727C113.642 611.299 134.293 621.951 155.696 621.951C175.039 621.951 193.559 613.449 207.846 598.011C210.986 594.617 211.214 588.845 208.351 585.121C205.49 581.398 200.627 581.126 197.481 584.522Z" fill="#D6D6D6"/>
</svg>
