<svg width="1095" height="644" viewBox="0 0 1095 644" fill="none" xmlns="http://www.w3.org/2000/svg">
<rect width="1095" height="644" rx="21" fill="#1B1B1B"/>
<rect x="178" y="111" width="730" height="428" rx="33" fill="#191E2F" stroke="#1D4ED8" stroke-width="2"/>
<path d="M250 201H866V355H250V201Z" fill="#222635"/>
<path d="M477.483 152.364H479.591V159.966C479.591 160.799 479.394 161.532 479 162.165C478.61 162.797 478.061 163.292 477.352 163.648C476.644 164 475.816 164.176 474.869 164.176C473.919 164.176 473.089 164 472.381 163.648C471.672 163.292 471.123 162.797 470.733 162.165C470.343 161.532 470.148 160.799 470.148 159.966V152.364H472.256V159.79C472.256 160.275 472.362 160.706 472.574 161.085C472.79 161.464 473.093 161.761 473.483 161.977C473.873 162.189 474.335 162.295 474.869 162.295C475.403 162.295 475.866 162.189 476.256 161.977C476.65 161.761 476.953 161.464 477.165 161.085C477.377 160.706 477.483 160.275 477.483 159.79V152.364ZM481.791 167.273V155.273H483.814V156.716H483.933C484.039 156.504 484.189 156.278 484.382 156.04C484.575 155.797 484.837 155.591 485.166 155.42C485.496 155.246 485.916 155.159 486.428 155.159C487.102 155.159 487.71 155.331 488.251 155.676C488.797 156.017 489.229 156.523 489.547 157.193C489.869 157.86 490.03 158.678 490.03 159.648C490.03 160.606 489.873 161.42 489.558 162.091C489.244 162.761 488.816 163.273 488.274 163.625C487.732 163.977 487.119 164.153 486.433 164.153C485.933 164.153 485.518 164.07 485.189 163.903C484.859 163.737 484.594 163.536 484.393 163.301C484.196 163.062 484.043 162.837 483.933 162.625H483.848V167.273H481.791ZM483.808 159.636C483.808 160.201 483.888 160.695 484.047 161.119C484.21 161.544 484.443 161.875 484.746 162.114C485.053 162.348 485.424 162.466 485.859 162.466C486.314 162.466 486.695 162.345 487.001 162.102C487.308 161.856 487.539 161.521 487.695 161.097C487.854 160.669 487.933 160.182 487.933 159.636C487.933 159.095 487.856 158.614 487.7 158.193C487.545 157.773 487.314 157.443 487.007 157.205C486.7 156.966 486.318 156.847 485.859 156.847C485.42 156.847 485.047 156.962 484.74 157.193C484.433 157.424 484.2 157.748 484.041 158.165C483.886 158.581 483.808 159.072 483.808 159.636ZM493.848 152.364V164H491.791V152.364H493.848ZM499.77 164.17C498.918 164.17 498.179 163.983 497.554 163.608C496.929 163.233 496.444 162.708 496.099 162.034C495.759 161.36 495.588 160.572 495.588 159.67C495.588 158.769 495.759 157.979 496.099 157.301C496.444 156.623 496.929 156.097 497.554 155.722C498.179 155.347 498.918 155.159 499.77 155.159C500.622 155.159 501.361 155.347 501.986 155.722C502.611 156.097 503.094 156.623 503.435 157.301C503.779 157.979 503.952 158.769 503.952 159.67C503.952 160.572 503.779 161.36 503.435 162.034C503.094 162.708 502.611 163.233 501.986 163.608C501.361 163.983 500.622 164.17 499.77 164.17ZM499.781 162.523C500.243 162.523 500.63 162.396 500.94 162.142C501.251 161.884 501.482 161.54 501.634 161.108C501.789 160.676 501.866 160.195 501.866 159.665C501.866 159.131 501.789 158.648 501.634 158.216C501.482 157.78 501.251 157.434 500.94 157.176C500.63 156.919 500.243 156.79 499.781 156.79C499.308 156.79 498.914 156.919 498.599 157.176C498.289 157.434 498.056 157.78 497.901 158.216C497.749 158.648 497.673 159.131 497.673 159.665C497.673 160.195 497.749 160.676 497.901 161.108C498.056 161.54 498.289 161.884 498.599 162.142C498.914 162.396 499.308 162.523 499.781 162.523ZM508.209 164.176C507.656 164.176 507.158 164.078 506.714 163.881C506.275 163.68 505.927 163.384 505.669 162.994C505.415 162.604 505.288 162.123 505.288 161.551C505.288 161.059 505.379 160.652 505.561 160.33C505.743 160.008 505.991 159.75 506.305 159.557C506.62 159.364 506.974 159.218 507.368 159.119C507.766 159.017 508.177 158.943 508.601 158.898C509.112 158.845 509.527 158.797 509.845 158.756C510.163 158.71 510.394 158.642 510.538 158.551C510.686 158.456 510.76 158.311 510.76 158.114V158.08C510.76 157.652 510.633 157.32 510.379 157.085C510.125 156.85 509.76 156.733 509.283 156.733C508.779 156.733 508.379 156.843 508.084 157.062C507.792 157.282 507.595 157.542 507.493 157.841L505.572 157.568C505.724 157.038 505.974 156.595 506.322 156.239C506.671 155.879 507.097 155.61 507.601 155.432C508.105 155.25 508.661 155.159 509.271 155.159C509.692 155.159 510.11 155.208 510.527 155.307C510.944 155.405 511.324 155.568 511.669 155.795C512.014 156.019 512.29 156.324 512.499 156.71C512.711 157.097 512.817 157.58 512.817 158.159V164H510.839V162.801H510.771C510.646 163.044 510.47 163.271 510.243 163.483C510.019 163.691 509.737 163.86 509.396 163.989C509.059 164.114 508.663 164.176 508.209 164.176ZM508.743 162.665C509.156 162.665 509.514 162.583 509.817 162.42C510.12 162.254 510.353 162.034 510.516 161.761C510.682 161.489 510.766 161.191 510.766 160.869V159.841C510.701 159.894 510.591 159.943 510.436 159.989C510.285 160.034 510.114 160.074 509.925 160.108C509.735 160.142 509.548 160.172 509.362 160.199C509.177 160.225 509.016 160.248 508.879 160.267C508.572 160.309 508.298 160.377 508.055 160.472C507.813 160.566 507.622 160.699 507.482 160.869C507.341 161.036 507.271 161.252 507.271 161.517C507.271 161.896 507.41 162.182 507.686 162.375C507.963 162.568 508.315 162.665 508.743 162.665ZM518.124 164.153C517.438 164.153 516.824 163.977 516.283 163.625C515.741 163.273 515.313 162.761 514.999 162.091C514.684 161.42 514.527 160.606 514.527 159.648C514.527 158.678 514.686 157.86 515.004 157.193C515.326 156.523 515.76 156.017 516.305 155.676C516.851 155.331 517.459 155.159 518.129 155.159C518.641 155.159 519.061 155.246 519.391 155.42C519.72 155.591 519.982 155.797 520.175 156.04C520.368 156.278 520.518 156.504 520.624 156.716H520.709V152.364H522.771V164H520.749V162.625H520.624C520.518 162.837 520.364 163.062 520.163 163.301C519.963 163.536 519.697 163.737 519.368 163.903C519.038 164.07 518.624 164.153 518.124 164.153ZM518.697 162.466C519.133 162.466 519.504 162.348 519.811 162.114C520.118 161.875 520.351 161.544 520.51 161.119C520.669 160.695 520.749 160.201 520.749 159.636C520.749 159.072 520.669 158.581 520.51 158.165C520.355 157.748 520.124 157.424 519.817 157.193C519.514 156.962 519.141 156.847 518.697 156.847C518.239 156.847 517.857 156.966 517.55 157.205C517.243 157.443 517.012 157.773 516.857 158.193C516.701 158.614 516.624 159.095 516.624 159.636C516.624 160.182 516.701 160.669 516.857 161.097C517.016 161.521 517.249 161.856 517.555 162.102C517.866 162.345 518.247 162.466 518.697 162.466ZM531.443 164.176C530.89 164.176 530.392 164.078 529.949 163.881C529.509 163.68 529.161 163.384 528.903 162.994C528.65 162.604 528.523 162.123 528.523 161.551C528.523 161.059 528.614 160.652 528.795 160.33C528.977 160.008 529.225 159.75 529.54 159.557C529.854 159.364 530.208 159.218 530.602 159.119C531 159.017 531.411 158.943 531.835 158.898C532.347 158.845 532.761 158.797 533.08 158.756C533.398 158.71 533.629 158.642 533.773 158.551C533.92 158.456 533.994 158.311 533.994 158.114V158.08C533.994 157.652 533.867 157.32 533.614 157.085C533.36 156.85 532.994 156.733 532.517 156.733C532.013 156.733 531.614 156.843 531.318 157.062C531.027 157.282 530.83 157.542 530.727 157.841L528.807 157.568C528.958 157.038 529.208 156.595 529.557 156.239C529.905 155.879 530.331 155.61 530.835 155.432C531.339 155.25 531.896 155.159 532.506 155.159C532.926 155.159 533.345 155.208 533.761 155.307C534.178 155.405 534.559 155.568 534.903 155.795C535.248 156.019 535.525 156.324 535.733 156.71C535.945 157.097 536.051 157.58 536.051 158.159V164H534.074V162.801H534.006C533.881 163.044 533.705 163.271 533.477 163.483C533.254 163.691 532.972 163.86 532.631 163.989C532.294 164.114 531.898 164.176 531.443 164.176ZM531.977 162.665C532.39 162.665 532.748 162.583 533.051 162.42C533.354 162.254 533.587 162.034 533.75 161.761C533.917 161.489 534 161.191 534 160.869V159.841C533.936 159.894 533.826 159.943 533.67 159.989C533.519 160.034 533.348 160.074 533.159 160.108C532.97 160.142 532.782 160.172 532.597 160.199C532.411 160.225 532.25 160.248 532.114 160.267C531.807 160.309 531.532 160.377 531.29 160.472C531.047 160.566 530.856 160.699 530.716 160.869C530.576 161.036 530.506 161.252 530.506 161.517C530.506 161.896 530.644 162.182 530.92 162.375C531.197 162.568 531.549 162.665 531.977 162.665ZM540.176 158.886V164H538.119V155.273H540.085V156.756H540.188C540.388 156.267 540.708 155.879 541.148 155.591C541.591 155.303 542.138 155.159 542.79 155.159C543.392 155.159 543.917 155.288 544.364 155.545C544.814 155.803 545.163 156.176 545.409 156.665C545.659 157.153 545.782 157.746 545.778 158.443V164H543.722V158.761C543.722 158.178 543.57 157.722 543.267 157.392C542.968 157.062 542.553 156.898 542.023 156.898C541.663 156.898 541.343 156.977 541.062 157.136C540.786 157.292 540.568 157.517 540.409 157.812C540.254 158.108 540.176 158.466 540.176 158.886ZM548.835 167.273C548.555 167.273 548.295 167.25 548.057 167.205C547.822 167.163 547.634 167.114 547.494 167.057L547.972 165.455C548.271 165.542 548.538 165.583 548.773 165.58C549.008 165.576 549.214 165.502 549.392 165.358C549.574 165.218 549.727 164.983 549.852 164.653L550.028 164.182L546.864 155.273H549.045L551.057 161.864H551.148L553.165 155.273H555.352L551.858 165.057C551.695 165.519 551.479 165.915 551.21 166.244C550.941 166.578 550.612 166.831 550.222 167.006C549.835 167.184 549.373 167.273 548.835 167.273ZM560.744 164V155.273H562.71V156.756H562.812C562.994 156.256 563.295 155.866 563.716 155.585C564.136 155.301 564.638 155.159 565.222 155.159C565.812 155.159 566.311 155.303 566.716 155.591C567.125 155.875 567.413 156.263 567.58 156.756H567.67C567.864 156.271 568.189 155.884 568.648 155.597C569.11 155.305 569.657 155.159 570.29 155.159C571.093 155.159 571.748 155.413 572.256 155.92C572.763 156.428 573.017 157.169 573.017 158.142V164H570.955V158.46C570.955 157.919 570.811 157.523 570.523 157.273C570.235 157.019 569.883 156.892 569.466 156.892C568.97 156.892 568.581 157.047 568.301 157.358C568.025 157.665 567.886 158.064 567.886 158.557V164H565.869V158.375C565.869 157.924 565.733 157.564 565.46 157.295C565.191 157.027 564.839 156.892 564.403 156.892C564.108 156.892 563.839 156.968 563.597 157.119C563.354 157.267 563.161 157.477 563.017 157.75C562.873 158.019 562.801 158.333 562.801 158.693V164H560.744ZM578.967 164.17C578.092 164.17 577.337 163.989 576.7 163.625C576.068 163.258 575.581 162.739 575.24 162.068C574.899 161.394 574.729 160.6 574.729 159.688C574.729 158.79 574.899 158.002 575.24 157.324C575.585 156.642 576.066 156.112 576.683 155.733C577.301 155.35 578.026 155.159 578.859 155.159C579.397 155.159 579.905 155.246 580.382 155.42C580.863 155.591 581.287 155.856 581.655 156.216C582.026 156.576 582.318 157.034 582.53 157.591C582.742 158.144 582.848 158.803 582.848 159.568V160.199H575.695V158.812H580.876C580.873 158.419 580.787 158.068 580.621 157.761C580.454 157.451 580.221 157.206 579.922 157.028C579.626 156.85 579.282 156.761 578.888 156.761C578.467 156.761 578.098 156.864 577.78 157.068C577.462 157.269 577.214 157.534 577.036 157.864C576.861 158.189 576.772 158.547 576.768 158.938V160.148C576.768 160.655 576.861 161.091 577.047 161.455C577.232 161.814 577.492 162.091 577.825 162.284C578.159 162.473 578.549 162.568 578.996 162.568C579.295 162.568 579.566 162.527 579.808 162.443C580.051 162.356 580.261 162.229 580.439 162.062C580.617 161.896 580.751 161.689 580.842 161.443L582.763 161.659C582.642 162.167 582.411 162.61 582.07 162.989C581.732 163.364 581.301 163.655 580.774 163.864C580.248 164.068 579.645 164.17 578.967 164.17ZM584.588 164V155.273H586.554V156.756H586.656C586.838 156.256 587.139 155.866 587.56 155.585C587.98 155.301 588.482 155.159 589.065 155.159C589.656 155.159 590.154 155.303 590.56 155.591C590.969 155.875 591.257 156.263 591.423 156.756H591.514C591.707 156.271 592.033 155.884 592.491 155.597C592.954 155.305 593.501 155.159 594.134 155.159C594.937 155.159 595.592 155.413 596.099 155.92C596.607 156.428 596.861 157.169 596.861 158.142V164H594.798V158.46C594.798 157.919 594.654 157.523 594.366 157.273C594.079 157.019 593.726 156.892 593.31 156.892C592.813 156.892 592.425 157.047 592.145 157.358C591.868 157.665 591.73 158.064 591.73 158.557V164H589.713V158.375C589.713 157.924 589.577 157.564 589.304 157.295C589.035 157.027 588.683 156.892 588.247 156.892C587.952 156.892 587.683 156.968 587.44 157.119C587.198 157.267 587.005 157.477 586.861 157.75C586.717 158.019 586.645 158.333 586.645 158.693V164H584.588ZM598.947 164V155.273H600.942V156.727H601.033C601.192 156.223 601.464 155.835 601.851 155.562C602.241 155.286 602.686 155.148 603.186 155.148C603.3 155.148 603.427 155.153 603.567 155.165C603.711 155.172 603.83 155.186 603.925 155.205V157.097C603.838 157.066 603.699 157.04 603.51 157.017C603.324 156.991 603.144 156.977 602.97 156.977C602.595 156.977 602.258 157.059 601.959 157.222C601.663 157.381 601.43 157.602 601.26 157.886C601.089 158.17 601.004 158.498 601.004 158.869V164H598.947ZM605.291 164V155.273H607.348V164H605.291ZM606.325 154.034C606 154.034 605.719 153.926 605.484 153.71C605.25 153.491 605.132 153.227 605.132 152.92C605.132 152.61 605.25 152.347 605.484 152.131C605.719 151.911 606 151.801 606.325 151.801C606.655 151.801 606.935 151.911 607.166 152.131C607.401 152.347 607.518 152.61 607.518 152.92C607.518 153.227 607.401 153.491 607.166 153.71C606.935 153.926 606.655 154.034 606.325 154.034ZM616.361 157.58L614.486 157.784C614.433 157.595 614.34 157.417 614.207 157.25C614.079 157.083 613.904 156.949 613.685 156.847C613.465 156.744 613.196 156.693 612.878 156.693C612.45 156.693 612.09 156.786 611.798 156.972C611.51 157.157 611.368 157.398 611.372 157.693C611.368 157.947 611.461 158.153 611.651 158.312C611.844 158.472 612.162 158.602 612.605 158.705L614.094 159.023C614.92 159.201 615.533 159.483 615.935 159.869C616.34 160.256 616.545 160.761 616.548 161.386C616.545 161.936 616.384 162.42 616.065 162.841C615.751 163.258 615.313 163.583 614.753 163.818C614.192 164.053 613.548 164.17 612.821 164.17C611.753 164.17 610.893 163.947 610.241 163.5C609.59 163.049 609.202 162.422 609.077 161.619L611.082 161.426C611.173 161.82 611.366 162.117 611.662 162.318C611.957 162.519 612.342 162.619 612.815 162.619C613.304 162.619 613.696 162.519 613.991 162.318C614.291 162.117 614.44 161.869 614.44 161.574C614.44 161.324 614.344 161.117 614.151 160.955C613.961 160.792 613.666 160.667 613.264 160.58L611.776 160.267C610.938 160.093 610.319 159.799 609.918 159.386C609.516 158.97 609.317 158.443 609.321 157.807C609.317 157.269 609.463 156.803 609.759 156.409C610.058 156.011 610.473 155.705 611.003 155.489C611.537 155.269 612.152 155.159 612.849 155.159C613.872 155.159 614.677 155.377 615.264 155.812C615.855 156.248 616.221 156.837 616.361 157.58ZM622.108 164.17C621.233 164.17 620.477 163.989 619.841 163.625C619.208 163.258 618.722 162.739 618.381 162.068C618.04 161.394 617.869 160.6 617.869 159.688C617.869 158.79 618.04 158.002 618.381 157.324C618.725 156.642 619.206 156.112 619.824 155.733C620.441 155.35 621.167 155.159 622 155.159C622.538 155.159 623.045 155.246 623.523 155.42C624.004 155.591 624.428 155.856 624.795 156.216C625.167 156.576 625.458 157.034 625.67 157.591C625.883 158.144 625.989 158.803 625.989 159.568V160.199H618.835V158.812H624.017C624.013 158.419 623.928 158.068 623.761 157.761C623.595 157.451 623.362 157.206 623.062 157.028C622.767 156.85 622.422 156.761 622.028 156.761C621.608 156.761 621.239 156.864 620.92 157.068C620.602 157.269 620.354 157.534 620.176 157.864C620.002 158.189 619.913 158.547 619.909 158.938V160.148C619.909 160.655 620.002 161.091 620.188 161.455C620.373 161.814 620.633 162.091 620.966 162.284C621.299 162.473 621.689 162.568 622.136 162.568C622.436 162.568 622.706 162.527 622.949 162.443C623.191 162.356 623.402 162.229 623.58 162.062C623.758 161.896 623.892 161.689 623.983 161.443L625.903 161.659C625.782 162.167 625.551 162.61 625.21 162.989C624.873 163.364 624.441 163.655 623.915 163.864C623.388 164.068 622.786 164.17 622.108 164.17Z" fill="white"/>
<path d="M440.091 274H436.148V262.364H440.17C441.326 262.364 442.318 262.597 443.148 263.062C443.981 263.525 444.621 264.189 445.068 265.057C445.515 265.924 445.739 266.962 445.739 268.17C445.739 269.383 445.513 270.424 445.062 271.295C444.616 272.167 443.97 272.835 443.125 273.301C442.284 273.767 441.273 274 440.091 274ZM438.256 272.176H439.989C440.799 272.176 441.475 272.028 442.017 271.733C442.559 271.434 442.966 270.989 443.239 270.398C443.511 269.803 443.648 269.061 443.648 268.17C443.648 267.28 443.511 266.542 443.239 265.955C442.966 265.364 442.563 264.922 442.028 264.631C441.498 264.335 440.839 264.188 440.051 264.188H438.256V272.176ZM447.651 274V265.273H449.645V266.727H449.736C449.895 266.223 450.168 265.835 450.554 265.562C450.944 265.286 451.389 265.148 451.889 265.148C452.003 265.148 452.13 265.153 452.27 265.165C452.414 265.172 452.533 265.186 452.628 265.205V267.097C452.541 267.066 452.402 267.04 452.213 267.017C452.027 266.991 451.848 266.977 451.673 266.977C451.298 266.977 450.961 267.059 450.662 267.222C450.366 267.381 450.134 267.602 449.963 267.886C449.793 268.17 449.707 268.498 449.707 268.869V274H447.651ZM456.349 274.176C455.796 274.176 455.298 274.078 454.855 273.881C454.416 273.68 454.067 273.384 453.81 272.994C453.556 272.604 453.429 272.123 453.429 271.551C453.429 271.059 453.52 270.652 453.702 270.33C453.884 270.008 454.132 269.75 454.446 269.557C454.76 269.364 455.115 269.218 455.509 269.119C455.906 269.017 456.317 268.943 456.741 268.898C457.253 268.845 457.668 268.797 457.986 268.756C458.304 268.71 458.535 268.642 458.679 268.551C458.827 268.456 458.901 268.311 458.901 268.114V268.08C458.901 267.652 458.774 267.32 458.52 267.085C458.266 266.85 457.901 266.733 457.423 266.733C456.92 266.733 456.52 266.843 456.224 267.062C455.933 267.282 455.736 267.542 455.634 267.841L453.713 267.568C453.865 267.038 454.115 266.595 454.463 266.239C454.812 265.879 455.238 265.61 455.741 265.432C456.245 265.25 456.802 265.159 457.412 265.159C457.832 265.159 458.251 265.208 458.668 265.307C459.084 265.405 459.465 265.568 459.81 265.795C460.154 266.019 460.431 266.324 460.639 266.71C460.851 267.097 460.957 267.58 460.957 268.159V274H458.98V272.801H458.912C458.787 273.044 458.611 273.271 458.384 273.483C458.16 273.691 457.878 273.86 457.537 273.989C457.2 274.114 456.804 274.176 456.349 274.176ZM456.884 272.665C457.296 272.665 457.654 272.583 457.957 272.42C458.26 272.254 458.493 272.034 458.656 271.761C458.823 271.489 458.906 271.191 458.906 270.869V269.841C458.842 269.894 458.732 269.943 458.577 269.989C458.425 270.034 458.255 270.074 458.065 270.108C457.876 270.142 457.688 270.172 457.503 270.199C457.317 270.225 457.156 270.248 457.02 270.267C456.713 270.309 456.438 270.377 456.196 270.472C455.954 270.566 455.762 270.699 455.622 270.869C455.482 271.036 455.412 271.252 455.412 271.517C455.412 271.896 455.55 272.182 455.827 272.375C456.103 272.568 456.455 272.665 456.884 272.665ZM466.821 277.455C466.082 277.455 465.448 277.354 464.918 277.153C464.387 276.956 463.961 276.691 463.639 276.358C463.317 276.025 463.094 275.655 462.969 275.25L464.821 274.801C464.904 274.972 465.026 275.14 465.185 275.307C465.344 275.477 465.558 275.617 465.827 275.727C466.099 275.841 466.442 275.898 466.855 275.898C467.438 275.898 467.921 275.756 468.304 275.472C468.687 275.191 468.878 274.729 468.878 274.085V272.432H468.776C468.67 272.644 468.514 272.862 468.31 273.085C468.109 273.309 467.842 273.496 467.509 273.648C467.179 273.799 466.764 273.875 466.264 273.875C465.594 273.875 464.986 273.718 464.44 273.403C463.899 273.085 463.467 272.612 463.145 271.983C462.827 271.35 462.668 270.559 462.668 269.608C462.668 268.65 462.827 267.841 463.145 267.182C463.467 266.519 463.901 266.017 464.446 265.676C464.991 265.331 465.599 265.159 466.27 265.159C466.781 265.159 467.202 265.246 467.531 265.42C467.865 265.591 468.13 265.797 468.327 266.04C468.524 266.278 468.673 266.504 468.776 266.716H468.889V265.273H470.918V274.142C470.918 274.888 470.74 275.506 470.384 275.994C470.027 276.483 469.541 276.848 468.923 277.091C468.306 277.333 467.605 277.455 466.821 277.455ZM466.838 272.261C467.274 272.261 467.645 272.155 467.952 271.943C468.259 271.731 468.491 271.426 468.651 271.028C468.81 270.631 468.889 270.153 468.889 269.597C468.889 269.047 468.81 268.566 468.651 268.153C468.495 267.741 468.264 267.42 467.957 267.193C467.654 266.962 467.281 266.847 466.838 266.847C466.38 266.847 465.997 266.966 465.69 267.205C465.384 267.443 465.152 267.771 464.997 268.188C464.842 268.6 464.764 269.07 464.764 269.597C464.764 270.131 464.842 270.598 464.997 271C465.156 271.398 465.389 271.708 465.696 271.932C466.007 272.152 466.387 272.261 466.838 272.261ZM481.415 265.273V266.864H476.256V265.273H481.415ZM477.545 274V264.449C477.545 263.862 477.667 263.373 477.909 262.983C478.155 262.593 478.485 262.301 478.898 262.108C479.311 261.915 479.769 261.818 480.273 261.818C480.629 261.818 480.945 261.847 481.222 261.903C481.498 261.96 481.703 262.011 481.835 262.057L481.426 263.648C481.339 263.621 481.229 263.595 481.097 263.568C480.964 263.538 480.816 263.523 480.653 263.523C480.271 263.523 480 263.616 479.841 263.801C479.686 263.983 479.608 264.244 479.608 264.585V274H477.545ZM483.026 274V265.273H485.082V274H483.026ZM484.06 264.034C483.734 264.034 483.454 263.926 483.219 263.71C482.984 263.491 482.866 263.227 482.866 262.92C482.866 262.61 482.984 262.347 483.219 262.131C483.454 261.911 483.734 261.801 484.06 261.801C484.389 261.801 484.67 261.911 484.901 262.131C485.135 262.347 485.253 262.61 485.253 262.92C485.253 263.227 485.135 263.491 484.901 263.71C484.67 263.926 484.389 264.034 484.06 264.034ZM489.254 262.364V274H487.197V262.364H489.254ZM495.233 274.17C494.358 274.17 493.602 273.989 492.966 273.625C492.333 273.258 491.847 272.739 491.506 272.068C491.165 271.394 490.994 270.6 490.994 269.688C490.994 268.79 491.165 268.002 491.506 267.324C491.85 266.642 492.331 266.112 492.949 265.733C493.566 265.35 494.292 265.159 495.125 265.159C495.663 265.159 496.17 265.246 496.648 265.42C497.129 265.591 497.553 265.856 497.92 266.216C498.292 266.576 498.583 267.034 498.795 267.591C499.008 268.144 499.114 268.803 499.114 269.568V270.199H491.96V268.812H497.142C497.138 268.419 497.053 268.068 496.886 267.761C496.72 267.451 496.487 267.206 496.188 267.028C495.892 266.85 495.547 266.761 495.153 266.761C494.733 266.761 494.364 266.864 494.045 267.068C493.727 267.269 493.479 267.534 493.301 267.864C493.127 268.189 493.038 268.547 493.034 268.938V270.148C493.034 270.655 493.127 271.091 493.312 271.455C493.498 271.814 493.758 272.091 494.091 272.284C494.424 272.473 494.814 272.568 495.261 272.568C495.561 272.568 495.831 272.527 496.074 272.443C496.316 272.356 496.527 272.229 496.705 272.062C496.883 271.896 497.017 271.689 497.108 271.443L499.028 271.659C498.907 272.167 498.676 272.61 498.335 272.989C497.998 273.364 497.566 273.655 497.04 273.864C496.513 274.068 495.911 274.17 495.233 274.17ZM507.751 267.58L505.876 267.784C505.823 267.595 505.731 267.417 505.598 267.25C505.469 267.083 505.295 266.949 505.075 266.847C504.856 266.744 504.587 266.693 504.268 266.693C503.84 266.693 503.481 266.786 503.189 266.972C502.901 267.157 502.759 267.398 502.763 267.693C502.759 267.947 502.852 268.153 503.041 268.312C503.234 268.472 503.553 268.602 503.996 268.705L505.484 269.023C506.31 269.201 506.924 269.483 507.325 269.869C507.731 270.256 507.935 270.761 507.939 271.386C507.935 271.936 507.774 272.42 507.456 272.841C507.142 273.258 506.704 273.583 506.143 273.818C505.583 274.053 504.939 274.17 504.212 274.17C503.143 274.17 502.284 273.947 501.632 273.5C500.981 273.049 500.592 272.422 500.467 271.619L502.473 271.426C502.564 271.82 502.757 272.117 503.053 272.318C503.348 272.519 503.732 272.619 504.206 272.619C504.695 272.619 505.087 272.519 505.382 272.318C505.681 272.117 505.831 271.869 505.831 271.574C505.831 271.324 505.734 271.117 505.541 270.955C505.352 270.792 505.056 270.667 504.655 270.58L503.166 270.267C502.329 270.093 501.71 269.799 501.308 269.386C500.907 268.97 500.708 268.443 500.712 267.807C500.708 267.269 500.854 266.803 501.149 266.409C501.448 266.011 501.863 265.705 502.393 265.489C502.928 265.269 503.543 265.159 504.24 265.159C505.263 265.159 506.068 265.377 506.655 265.812C507.246 266.248 507.611 266.837 507.751 267.58ZM515.661 268.886V274H513.604V262.364H515.615V266.756H515.717C515.922 266.263 516.238 265.875 516.666 265.591C517.098 265.303 517.647 265.159 518.314 265.159C518.92 265.159 519.448 265.286 519.899 265.54C520.35 265.794 520.698 266.165 520.945 266.653C521.195 267.142 521.32 267.739 521.32 268.443V274H519.263V268.761C519.263 268.174 519.111 267.718 518.808 267.392C518.509 267.062 518.089 266.898 517.547 266.898C517.183 266.898 516.857 266.977 516.57 267.136C516.286 267.292 516.062 267.517 515.899 267.812C515.74 268.108 515.661 268.466 515.661 268.886ZM527.28 274.17C526.405 274.17 525.649 273.989 525.013 273.625C524.38 273.258 523.893 272.739 523.553 272.068C523.212 271.394 523.041 270.6 523.041 269.688C523.041 268.79 523.212 268.002 523.553 267.324C523.897 266.642 524.378 266.112 524.996 265.733C525.613 265.35 526.339 265.159 527.172 265.159C527.71 265.159 528.217 265.246 528.695 265.42C529.176 265.591 529.6 265.856 529.967 266.216C530.339 266.576 530.63 267.034 530.842 267.591C531.054 268.144 531.161 268.803 531.161 269.568V270.199H524.007V268.812H529.189C529.185 268.419 529.1 268.068 528.933 267.761C528.767 267.451 528.534 267.206 528.234 267.028C527.939 266.85 527.594 266.761 527.2 266.761C526.78 266.761 526.411 266.864 526.092 267.068C525.774 267.269 525.526 267.534 525.348 267.864C525.174 268.189 525.085 268.547 525.081 268.938V270.148C525.081 270.655 525.174 271.091 525.359 271.455C525.545 271.814 525.804 272.091 526.138 272.284C526.471 272.473 526.861 272.568 527.308 272.568C527.607 272.568 527.878 272.527 528.121 272.443C528.363 272.356 528.573 272.229 528.751 272.062C528.929 271.896 529.064 271.689 529.155 271.443L531.075 271.659C530.954 272.167 530.723 272.61 530.382 272.989C530.045 273.364 529.613 273.655 529.087 273.864C528.56 274.068 527.958 274.17 527.28 274.17ZM532.901 274V265.273H534.895V266.727H534.986C535.145 266.223 535.418 265.835 535.804 265.562C536.194 265.286 536.639 265.148 537.139 265.148C537.253 265.148 537.38 265.153 537.52 265.165C537.664 265.172 537.783 265.186 537.878 265.205V267.097C537.791 267.066 537.652 267.04 537.463 267.017C537.277 266.991 537.098 266.977 536.923 266.977C536.548 266.977 536.211 267.059 535.912 267.222C535.616 267.381 535.384 267.602 535.213 267.886C535.043 268.17 534.957 268.498 534.957 268.869V274H532.901ZM542.749 274.17C541.874 274.17 541.118 273.989 540.482 273.625C539.849 273.258 539.362 272.739 539.021 272.068C538.68 271.394 538.51 270.6 538.51 269.688C538.51 268.79 538.68 268.002 539.021 267.324C539.366 266.642 539.847 266.112 540.464 265.733C541.082 265.35 541.807 265.159 542.641 265.159C543.179 265.159 543.686 265.246 544.163 265.42C544.644 265.591 545.069 265.856 545.436 266.216C545.807 266.576 546.099 267.034 546.311 267.591C546.523 268.144 546.629 268.803 546.629 269.568V270.199H539.476V268.812H544.658C544.654 268.419 544.569 268.068 544.402 267.761C544.235 267.451 544.002 267.206 543.703 267.028C543.408 266.85 543.063 266.761 542.669 266.761C542.249 266.761 541.879 266.864 541.561 267.068C541.243 267.269 540.995 267.534 540.817 267.864C540.643 268.189 540.554 268.547 540.55 268.938V270.148C540.55 270.655 540.643 271.091 540.828 271.455C541.014 271.814 541.273 272.091 541.607 272.284C541.94 272.473 542.33 272.568 542.777 272.568C543.076 272.568 543.347 272.527 543.589 272.443C543.832 272.356 544.042 272.229 544.22 272.062C544.398 271.896 544.533 271.689 544.624 271.443L546.544 271.659C546.423 272.167 546.192 272.61 545.851 272.989C545.514 273.364 545.082 273.655 544.555 273.864C544.029 274.068 543.427 274.17 542.749 274.17ZM556.145 274.17C555.293 274.17 554.554 273.983 553.929 273.608C553.304 273.233 552.819 272.708 552.474 272.034C552.134 271.36 551.963 270.572 551.963 269.67C551.963 268.769 552.134 267.979 552.474 267.301C552.819 266.623 553.304 266.097 553.929 265.722C554.554 265.347 555.293 265.159 556.145 265.159C556.997 265.159 557.736 265.347 558.361 265.722C558.986 266.097 559.469 266.623 559.81 267.301C560.154 267.979 560.327 268.769 560.327 269.67C560.327 270.572 560.154 271.36 559.81 272.034C559.469 272.708 558.986 273.233 558.361 273.608C557.736 273.983 556.997 274.17 556.145 274.17ZM556.156 272.523C556.618 272.523 557.005 272.396 557.315 272.142C557.626 271.884 557.857 271.54 558.009 271.108C558.164 270.676 558.241 270.195 558.241 269.665C558.241 269.131 558.164 268.648 558.009 268.216C557.857 267.78 557.626 267.434 557.315 267.176C557.005 266.919 556.618 266.79 556.156 266.79C555.683 266.79 555.289 266.919 554.974 267.176C554.664 267.434 554.431 267.78 554.276 268.216C554.124 268.648 554.048 269.131 554.048 269.665C554.048 270.195 554.124 270.676 554.276 271.108C554.431 271.54 554.664 271.884 554.974 272.142C555.289 272.396 555.683 272.523 556.156 272.523ZM562.072 274V265.273H564.067V266.727H564.158C564.317 266.223 564.589 265.835 564.976 265.562C565.366 265.286 565.811 265.148 566.311 265.148C566.425 265.148 566.552 265.153 566.692 265.165C566.836 265.172 566.955 265.186 567.05 265.205V267.097C566.963 267.066 566.824 267.04 566.635 267.017C566.449 266.991 566.269 266.977 566.095 266.977C565.72 266.977 565.383 267.059 565.084 267.222C564.788 267.381 564.555 267.602 564.385 267.886C564.214 268.17 564.129 268.498 564.129 268.869V274H562.072ZM583.78 262.364H585.888V269.966C585.888 270.799 585.691 271.532 585.297 272.165C584.907 272.797 584.357 273.292 583.649 273.648C582.941 274 582.113 274.176 581.166 274.176C580.215 274.176 579.386 274 578.678 273.648C577.969 273.292 577.42 272.797 577.03 272.165C576.64 271.532 576.445 270.799 576.445 269.966V262.364H578.553V269.79C578.553 270.275 578.659 270.706 578.871 271.085C579.087 271.464 579.39 271.761 579.78 271.977C580.17 272.189 580.632 272.295 581.166 272.295C581.7 272.295 582.162 272.189 582.553 271.977C582.946 271.761 583.25 271.464 583.462 271.085C583.674 270.706 583.78 270.275 583.78 269.79V262.364ZM588.088 277.273V265.273H590.111V266.716H590.23C590.336 266.504 590.486 266.278 590.679 266.04C590.872 265.797 591.134 265.591 591.463 265.42C591.793 265.246 592.213 265.159 592.724 265.159C593.399 265.159 594.007 265.331 594.548 265.676C595.094 266.017 595.526 266.523 595.844 267.193C596.166 267.86 596.327 268.678 596.327 269.648C596.327 270.606 596.17 271.42 595.855 272.091C595.541 272.761 595.113 273.273 594.571 273.625C594.029 273.977 593.416 274.153 592.73 274.153C592.23 274.153 591.815 274.07 591.486 273.903C591.156 273.737 590.891 273.536 590.69 273.301C590.493 273.062 590.34 272.837 590.23 272.625H590.145V277.273H588.088ZM590.105 269.636C590.105 270.201 590.185 270.695 590.344 271.119C590.507 271.544 590.74 271.875 591.043 272.114C591.349 272.348 591.721 272.466 592.156 272.466C592.611 272.466 592.991 272.345 593.298 272.102C593.605 271.856 593.836 271.521 593.991 271.097C594.151 270.669 594.23 270.182 594.23 269.636C594.23 269.095 594.152 268.614 593.997 268.193C593.842 267.773 593.611 267.443 593.304 267.205C592.997 266.966 592.615 266.847 592.156 266.847C591.717 266.847 591.344 266.962 591.037 267.193C590.73 267.424 590.497 267.748 590.338 268.165C590.183 268.581 590.105 269.072 590.105 269.636ZM600.145 262.364V274H598.088V262.364H600.145ZM606.067 274.17C605.214 274.17 604.476 273.983 603.851 273.608C603.226 273.233 602.741 272.708 602.396 272.034C602.055 271.36 601.885 270.572 601.885 269.67C601.885 268.769 602.055 267.979 602.396 267.301C602.741 266.623 603.226 266.097 603.851 265.722C604.476 265.347 605.214 265.159 606.067 265.159C606.919 265.159 607.658 265.347 608.283 265.722C608.908 266.097 609.391 266.623 609.732 267.301C610.076 267.979 610.249 268.769 610.249 269.67C610.249 270.572 610.076 271.36 609.732 272.034C609.391 272.708 608.908 273.233 608.283 273.608C607.658 273.983 606.919 274.17 606.067 274.17ZM606.078 272.523C606.54 272.523 606.927 272.396 607.237 272.142C607.548 271.884 607.779 271.54 607.93 271.108C608.086 270.676 608.163 270.195 608.163 269.665C608.163 269.131 608.086 268.648 607.93 268.216C607.779 267.78 607.548 267.434 607.237 267.176C606.927 266.919 606.54 266.79 606.078 266.79C605.605 266.79 605.211 266.919 604.896 267.176C604.586 267.434 604.353 267.78 604.197 268.216C604.046 268.648 603.97 269.131 603.97 269.665C603.97 270.195 604.046 270.676 604.197 271.108C604.353 271.54 604.586 271.884 604.896 272.142C605.211 272.396 605.605 272.523 606.078 272.523ZM614.506 274.176C613.953 274.176 613.455 274.078 613.011 273.881C612.572 273.68 612.223 273.384 611.966 272.994C611.712 272.604 611.585 272.123 611.585 271.551C611.585 271.059 611.676 270.652 611.858 270.33C612.04 270.008 612.288 269.75 612.602 269.557C612.917 269.364 613.271 269.218 613.665 269.119C614.063 269.017 614.473 268.943 614.898 268.898C615.409 268.845 615.824 268.797 616.142 268.756C616.46 268.71 616.691 268.642 616.835 268.551C616.983 268.456 617.057 268.311 617.057 268.114V268.08C617.057 267.652 616.93 267.32 616.676 267.085C616.422 266.85 616.057 266.733 615.58 266.733C615.076 266.733 614.676 266.843 614.381 267.062C614.089 267.282 613.892 267.542 613.79 267.841L611.869 267.568C612.021 267.038 612.271 266.595 612.619 266.239C612.968 265.879 613.394 265.61 613.898 265.432C614.402 265.25 614.958 265.159 615.568 265.159C615.989 265.159 616.407 265.208 616.824 265.307C617.241 265.405 617.621 265.568 617.966 265.795C618.311 266.019 618.587 266.324 618.795 266.71C619.008 267.097 619.114 267.58 619.114 268.159V274H617.136V272.801H617.068C616.943 273.044 616.767 273.271 616.54 273.483C616.316 273.691 616.034 273.86 615.693 273.989C615.356 274.114 614.96 274.176 614.506 274.176ZM615.04 272.665C615.453 272.665 615.811 272.583 616.114 272.42C616.417 272.254 616.65 272.034 616.812 271.761C616.979 271.489 617.062 271.191 617.062 270.869V269.841C616.998 269.894 616.888 269.943 616.733 269.989C616.581 270.034 616.411 270.074 616.222 270.108C616.032 270.142 615.845 270.172 615.659 270.199C615.473 270.225 615.313 270.248 615.176 270.267C614.869 270.309 614.595 270.377 614.352 270.472C614.11 270.566 613.919 270.699 613.778 270.869C613.638 271.036 613.568 271.252 613.568 271.517C613.568 271.896 613.706 272.182 613.983 272.375C614.259 272.568 614.612 272.665 615.04 272.665ZM624.42 274.153C623.735 274.153 623.121 273.977 622.58 273.625C622.038 273.273 621.61 272.761 621.295 272.091C620.981 271.42 620.824 270.606 620.824 269.648C620.824 268.678 620.983 267.86 621.301 267.193C621.623 266.523 622.057 266.017 622.602 265.676C623.148 265.331 623.756 265.159 624.426 265.159C624.938 265.159 625.358 265.246 625.688 265.42C626.017 265.591 626.278 265.797 626.472 266.04C626.665 266.278 626.814 266.504 626.92 266.716H627.006V262.364H629.068V274H627.045V272.625H626.92C626.814 272.837 626.661 273.062 626.46 273.301C626.259 273.536 625.994 273.737 625.665 273.903C625.335 274.07 624.92 274.153 624.42 274.153ZM624.994 272.466C625.43 272.466 625.801 272.348 626.108 272.114C626.415 271.875 626.648 271.544 626.807 271.119C626.966 270.695 627.045 270.201 627.045 269.636C627.045 269.072 626.966 268.581 626.807 268.165C626.652 267.748 626.42 267.424 626.114 267.193C625.811 266.962 625.438 266.847 624.994 266.847C624.536 266.847 624.153 266.966 623.847 267.205C623.54 267.443 623.309 267.773 623.153 268.193C622.998 268.614 622.92 269.095 622.92 269.636C622.92 270.182 622.998 270.669 623.153 271.097C623.313 271.521 623.545 271.856 623.852 272.102C624.163 272.345 624.544 272.466 624.994 272.466ZM639.649 265.273V266.864H634.49V265.273H639.649ZM635.78 274V264.449C635.78 263.862 635.901 263.373 636.143 262.983C636.39 262.593 636.719 262.301 637.132 262.108C637.545 261.915 638.003 261.818 638.507 261.818C638.863 261.818 639.179 261.847 639.456 261.903C639.732 261.96 639.937 262.011 640.07 262.057L639.661 263.648C639.573 263.621 639.464 263.595 639.331 263.568C639.198 263.538 639.051 263.523 638.888 263.523C638.505 263.523 638.234 263.616 638.075 263.801C637.92 263.983 637.842 264.244 637.842 264.585V274H635.78ZM641.26 274V265.273H643.317V274H641.26ZM642.294 264.034C641.968 264.034 641.688 263.926 641.453 263.71C641.218 263.491 641.101 263.227 641.101 262.92C641.101 262.61 641.218 262.347 641.453 262.131C641.688 261.911 641.968 261.801 642.294 261.801C642.624 261.801 642.904 261.911 643.135 262.131C643.37 262.347 643.487 262.61 643.487 262.92C643.487 263.227 643.37 263.491 643.135 263.71C642.904 263.926 642.624 264.034 642.294 264.034ZM647.489 262.364V274H645.432V262.364H647.489ZM653.467 274.17C652.592 274.17 651.837 273.989 651.2 273.625C650.568 273.258 650.081 272.739 649.74 272.068C649.399 271.394 649.229 270.6 649.229 269.688C649.229 268.79 649.399 268.002 649.74 267.324C650.085 266.642 650.566 266.112 651.183 265.733C651.801 265.35 652.526 265.159 653.359 265.159C653.897 265.159 654.405 265.246 654.882 265.42C655.363 265.591 655.787 265.856 656.155 266.216C656.526 266.576 656.818 267.034 657.03 267.591C657.242 268.144 657.348 268.803 657.348 269.568V270.199H650.195V268.812H655.376C655.373 268.419 655.287 268.068 655.121 267.761C654.954 267.451 654.721 267.206 654.422 267.028C654.126 266.85 653.782 266.761 653.388 266.761C652.967 266.761 652.598 266.864 652.28 267.068C651.962 267.269 651.714 267.534 651.536 267.864C651.361 268.189 651.272 268.547 651.268 268.938V270.148C651.268 270.655 651.361 271.091 651.547 271.455C651.732 271.814 651.992 272.091 652.325 272.284C652.659 272.473 653.049 272.568 653.496 272.568C653.795 272.568 654.066 272.527 654.308 272.443C654.551 272.356 654.761 272.229 654.939 272.062C655.117 271.896 655.251 271.689 655.342 271.443L657.263 271.659C657.142 272.167 656.911 272.61 656.57 272.989C656.232 273.364 655.801 273.655 655.274 273.864C654.748 274.068 654.145 274.17 653.467 274.17ZM665.986 267.58L664.111 267.784C664.058 267.595 663.965 267.417 663.832 267.25C663.704 267.083 663.529 266.949 663.31 266.847C663.09 266.744 662.821 266.693 662.503 266.693C662.075 266.693 661.715 266.786 661.423 266.972C661.135 267.157 660.993 267.398 660.997 267.693C660.993 267.947 661.086 268.153 661.276 268.312C661.469 268.472 661.787 268.602 662.23 268.705L663.719 269.023C664.545 269.201 665.158 269.483 665.56 269.869C665.965 270.256 666.17 270.761 666.173 271.386C666.17 271.936 666.009 272.42 665.69 272.841C665.376 273.258 664.938 273.583 664.378 273.818C663.817 274.053 663.173 274.17 662.446 274.17C661.378 274.17 660.518 273.947 659.866 273.5C659.215 273.049 658.827 272.422 658.702 271.619L660.707 271.426C660.798 271.82 660.991 272.117 661.287 272.318C661.582 272.519 661.967 272.619 662.44 272.619C662.929 272.619 663.321 272.519 663.616 272.318C663.916 272.117 664.065 271.869 664.065 271.574C664.065 271.324 663.969 271.117 663.776 270.955C663.586 270.792 663.291 270.667 662.889 270.58L661.401 270.267C660.563 270.093 659.944 269.799 659.543 269.386C659.141 268.97 658.942 268.443 658.946 267.807C658.942 267.269 659.088 266.803 659.384 266.409C659.683 266.011 660.098 265.705 660.628 265.489C661.162 265.269 661.777 265.159 662.474 265.159C663.497 265.159 664.302 265.377 664.889 265.812C665.48 266.248 665.846 266.837 665.986 267.58Z" fill="#CFCFCF"/>
<rect x="578" y="290" width="89" height="3" rx="1.5" fill="#D9D9D9"/>
<path d="M288.567 432.818L290.219 435.838L291.897 432.818H293.937L291.471 436.909L293.979 441H291.95L290.219 438.054L288.504 441H286.458L288.951 436.909L286.522 432.818H288.567ZM296.627 444.068C296.364 444.068 296.121 444.047 295.897 444.004C295.677 443.965 295.501 443.919 295.37 443.866L295.817 442.364C296.098 442.445 296.348 442.484 296.568 442.481C296.788 442.477 296.982 442.408 297.149 442.273C297.319 442.142 297.463 441.922 297.58 441.613L297.745 441.17L294.778 432.818H296.824L298.71 438.997H298.795L300.686 432.818H302.737L299.461 441.991C299.308 442.424 299.105 442.795 298.853 443.104C298.601 443.417 298.292 443.654 297.926 443.818C297.564 443.985 297.131 444.068 296.627 444.068ZM303.964 441V439.775L308.183 434.485V434.416H304.103V432.818H310.543V434.134L306.526 439.333V439.402H310.681V441H303.964ZM312.494 441V432.818H314.337V434.208H314.433C314.603 433.74 314.885 433.374 315.28 433.111C315.674 432.845 316.144 432.712 316.691 432.712C317.245 432.712 317.712 432.847 318.092 433.116C318.476 433.383 318.745 433.747 318.902 434.208H318.987C319.168 433.754 319.473 433.392 319.903 433.122C320.336 432.848 320.85 432.712 321.443 432.712C322.195 432.712 322.81 432.95 323.286 433.425C323.761 433.901 323.999 434.596 323.999 435.508V441H322.066V435.806C322.066 435.299 321.931 434.928 321.661 434.693C321.391 434.455 321.061 434.336 320.67 434.336C320.205 434.336 319.841 434.482 319.578 434.773C319.319 435.061 319.189 435.435 319.189 435.897V441H317.298V435.727C317.298 435.304 317.171 434.967 316.915 434.714C316.663 434.462 316.332 434.336 315.924 434.336C315.647 434.336 315.395 434.407 315.168 434.549C314.94 434.688 314.759 434.885 314.624 435.141C314.489 435.393 314.422 435.687 314.422 436.025V441H312.494ZM329.578 441.16C328.757 441.16 328.049 440.989 327.452 440.648C326.859 440.304 326.403 439.817 326.083 439.189C325.764 438.557 325.604 437.813 325.604 436.957C325.604 436.115 325.764 435.377 326.083 434.741C326.407 434.102 326.858 433.605 327.436 433.25C328.015 432.891 328.695 432.712 329.477 432.712C329.981 432.712 330.457 432.793 330.904 432.957C331.355 433.116 331.753 433.365 332.097 433.702C332.445 434.04 332.719 434.469 332.918 434.991C333.116 435.51 333.216 436.128 333.216 436.845V437.436H326.51V436.137H331.368C331.364 435.767 331.284 435.439 331.128 435.151C330.972 434.86 330.753 434.631 330.473 434.464C330.196 434.297 329.873 434.214 329.503 434.214C329.109 434.214 328.763 434.31 328.464 434.501C328.166 434.69 327.934 434.938 327.767 435.247C327.603 435.553 327.52 435.888 327.516 436.254V437.388C327.516 437.864 327.603 438.273 327.777 438.614C327.951 438.951 328.195 439.21 328.507 439.391C328.82 439.569 329.185 439.658 329.604 439.658C329.885 439.658 330.139 439.619 330.366 439.54C330.593 439.459 330.79 439.34 330.957 439.184C331.124 439.027 331.25 438.834 331.336 438.603L333.136 438.805C333.022 439.281 332.806 439.697 332.486 440.052C332.17 440.403 331.765 440.677 331.272 440.872C330.778 441.064 330.213 441.16 329.578 441.16ZM334.847 441V432.818H336.69V434.208H336.786C336.957 433.74 337.239 433.374 337.633 433.111C338.027 432.845 338.498 432.712 339.045 432.712C339.599 432.712 340.066 432.847 340.446 433.116C340.829 433.383 341.099 433.747 341.255 434.208H341.34C341.522 433.754 341.827 433.392 342.257 433.122C342.69 432.848 343.203 432.712 343.796 432.712C344.549 432.712 345.163 432.95 345.639 433.425C346.115 433.901 346.353 434.596 346.353 435.508V441H344.419V435.806C344.419 435.299 344.284 434.928 344.014 434.693C343.745 434.455 343.414 434.336 343.024 434.336C342.559 434.336 342.195 434.482 341.932 434.773C341.672 435.061 341.543 435.435 341.543 435.897V441H339.652V435.727C339.652 435.304 339.524 434.967 339.268 434.714C339.016 434.462 338.686 434.336 338.278 434.336C338.001 434.336 337.748 434.407 337.521 434.549C337.294 434.688 337.113 434.885 336.978 435.141C336.843 435.393 336.775 435.687 336.775 436.025V441H334.847ZM348.309 441V432.818H350.179V434.182H350.264C350.413 433.71 350.669 433.346 351.031 433.09C351.397 432.831 351.814 432.701 352.283 432.701C352.389 432.701 352.508 432.706 352.64 432.717C352.775 432.724 352.887 432.737 352.975 432.754V434.528C352.894 434.5 352.764 434.475 352.586 434.453C352.412 434.429 352.244 434.416 352.08 434.416C351.729 434.416 351.413 434.493 351.132 434.645C350.855 434.794 350.637 435.002 350.477 435.268C350.317 435.535 350.237 435.842 350.237 436.19V441H348.309ZM354.256 441V432.818H356.185V441H354.256ZM355.226 431.657C354.92 431.657 354.658 431.556 354.438 431.353C354.217 431.147 354.107 430.901 354.107 430.613C354.107 430.322 354.217 430.075 354.438 429.873C354.658 429.667 354.92 429.564 355.226 429.564C355.535 429.564 355.798 429.667 356.014 429.873C356.234 430.075 356.344 430.322 356.344 430.613C356.344 430.901 356.234 431.147 356.014 431.353C355.798 431.556 355.535 431.657 355.226 431.657ZM360.096 436.206V441H358.168V432.818H360.011V434.208H360.106C360.295 433.75 360.595 433.386 361.007 433.116C361.422 432.847 361.935 432.712 362.546 432.712C363.111 432.712 363.603 432.832 364.022 433.074C364.444 433.315 364.771 433.665 365.002 434.123C365.236 434.581 365.351 435.137 365.348 435.79V441H363.42V436.089C363.42 435.542 363.278 435.114 362.994 434.805C362.713 434.496 362.324 434.342 361.827 434.342C361.49 434.342 361.19 434.416 360.927 434.565C360.668 434.711 360.463 434.922 360.314 435.199C360.169 435.476 360.096 435.812 360.096 436.206ZM370.877 441.16C370.06 441.16 369.359 440.98 368.773 440.622C368.191 440.263 367.741 439.768 367.425 439.136C367.113 438.5 366.957 437.768 366.957 436.941C366.957 436.11 367.116 435.377 367.436 434.741C367.756 434.102 368.207 433.605 368.789 433.25C369.375 432.891 370.067 432.712 370.866 432.712C371.53 432.712 372.118 432.834 372.63 433.079C373.144 433.321 373.555 433.663 373.86 434.107C374.165 434.548 374.339 435.062 374.382 435.652H372.539C372.464 435.258 372.287 434.929 372.006 434.667C371.729 434.4 371.358 434.267 370.893 434.267C370.499 434.267 370.153 434.374 369.854 434.587C369.556 434.796 369.323 435.098 369.157 435.492C368.993 435.886 368.911 436.359 368.911 436.909C368.911 437.467 368.993 437.946 369.157 438.347C369.32 438.745 369.549 439.052 369.844 439.269C370.142 439.482 370.492 439.588 370.893 439.588C371.177 439.588 371.431 439.535 371.655 439.429C371.882 439.319 372.072 439.161 372.225 438.955C372.377 438.749 372.482 438.498 372.539 438.203H374.382C374.336 438.782 374.165 439.295 373.871 439.743C373.576 440.187 373.175 440.535 372.667 440.787C372.159 441.036 371.562 441.16 370.877 441.16ZM381.18 437.559V432.818H383.108V441H381.239V439.546H381.154C380.969 440.004 380.665 440.379 380.243 440.67C379.824 440.961 379.307 441.107 378.693 441.107C378.156 441.107 377.682 440.988 377.27 440.75C376.862 440.508 376.542 440.158 376.312 439.7C376.081 439.239 375.965 438.681 375.965 438.028V432.818H377.894V437.729C377.894 438.248 378.036 438.66 378.32 438.965C378.604 439.271 378.977 439.423 379.438 439.423C379.722 439.423 379.998 439.354 380.264 439.216C380.53 439.077 380.749 438.871 380.919 438.598C381.093 438.321 381.18 437.974 381.18 437.559ZM385.091 444.068V432.818H386.988V434.171H387.1C387.199 433.972 387.339 433.761 387.52 433.537C387.701 433.31 387.946 433.116 388.255 432.957C388.564 432.793 388.959 432.712 389.438 432.712C390.07 432.712 390.64 432.873 391.148 433.196C391.659 433.516 392.064 433.99 392.362 434.619C392.664 435.244 392.815 436.011 392.815 436.92C392.815 437.818 392.668 438.582 392.373 439.21C392.078 439.839 391.677 440.318 391.169 440.648C390.661 440.979 390.086 441.144 389.443 441.144C388.975 441.144 388.586 441.066 388.277 440.909C387.968 440.753 387.719 440.565 387.531 440.345C387.346 440.121 387.203 439.91 387.1 439.711H387.02V444.068H385.091ZM386.982 436.909C386.982 437.438 387.057 437.902 387.206 438.299C387.359 438.697 387.577 439.008 387.861 439.232C388.149 439.452 388.497 439.562 388.905 439.562C389.331 439.562 389.688 439.448 389.976 439.221C390.264 438.99 390.48 438.676 390.626 438.278C390.775 437.877 390.85 437.42 390.85 436.909C390.85 436.401 390.777 435.95 390.631 435.556C390.486 435.162 390.269 434.853 389.981 434.629C389.694 434.406 389.335 434.294 388.905 434.294C388.493 434.294 388.144 434.402 387.856 434.619C387.568 434.835 387.35 435.139 387.201 435.529C387.055 435.92 386.982 436.38 386.982 436.909ZM396.395 430.091V441H394.466V430.091H396.395ZM401.946 441.16C401.147 441.16 400.455 440.984 399.869 440.632C399.283 440.281 398.828 439.789 398.505 439.157C398.186 438.525 398.026 437.786 398.026 436.941C398.026 436.096 398.186 435.355 398.505 434.72C398.828 434.084 399.283 433.591 399.869 433.239C400.455 432.887 401.147 432.712 401.946 432.712C402.745 432.712 403.438 432.887 404.024 433.239C404.61 433.591 405.063 434.084 405.382 434.72C405.705 435.355 405.867 436.096 405.867 436.941C405.867 437.786 405.705 438.525 405.382 439.157C405.063 439.789 404.61 440.281 404.024 440.632C403.438 440.984 402.745 441.16 401.946 441.16ZM401.957 439.615C402.39 439.615 402.752 439.496 403.044 439.258C403.335 439.017 403.551 438.694 403.694 438.289C403.839 437.884 403.912 437.433 403.912 436.936C403.912 436.435 403.839 435.982 403.694 435.577C403.551 435.169 403.335 434.844 403.044 434.603C402.752 434.361 402.39 434.24 401.957 434.24C401.513 434.24 401.144 434.361 400.849 434.603C400.558 434.844 400.339 435.169 400.194 435.577C400.052 435.982 399.981 436.435 399.981 436.936C399.981 437.433 400.052 437.884 400.194 438.289C400.339 438.694 400.558 439.017 400.849 439.258C401.144 439.496 401.513 439.615 401.957 439.615ZM409.858 441.165C409.339 441.165 408.872 441.073 408.457 440.888C408.045 440.7 407.718 440.423 407.477 440.057C407.239 439.691 407.12 439.24 407.12 438.704C407.12 438.243 407.205 437.861 407.376 437.559C407.546 437.257 407.779 437.016 408.073 436.835C408.368 436.653 408.7 436.517 409.07 436.424C409.442 436.328 409.828 436.259 410.225 436.217C410.705 436.167 411.094 436.123 411.392 436.083C411.69 436.041 411.907 435.977 412.042 435.892C412.18 435.803 412.25 435.666 412.25 435.482V435.45C412.25 435.048 412.131 434.738 411.893 434.517C411.655 434.297 411.312 434.187 410.865 434.187C410.392 434.187 410.018 434.29 409.741 434.496C409.467 434.702 409.283 434.945 409.187 435.226L407.386 434.97C407.528 434.473 407.763 434.058 408.089 433.724C408.416 433.386 408.816 433.134 409.288 432.967C409.76 432.797 410.282 432.712 410.854 432.712C411.248 432.712 411.641 432.758 412.031 432.85C412.422 432.942 412.779 433.095 413.102 433.308C413.425 433.518 413.684 433.804 413.88 434.166C414.078 434.528 414.178 434.981 414.178 435.524V441H412.324V439.876H412.26C412.143 440.103 411.978 440.316 411.765 440.515C411.555 440.711 411.291 440.869 410.971 440.989C410.655 441.107 410.284 441.165 409.858 441.165ZM410.359 439.748C410.746 439.748 411.081 439.672 411.365 439.519C411.649 439.363 411.868 439.157 412.021 438.901C412.177 438.646 412.255 438.367 412.255 438.065V437.101C412.195 437.151 412.092 437.197 411.946 437.239C411.804 437.282 411.644 437.319 411.467 437.351C411.289 437.383 411.113 437.412 410.939 437.436C410.765 437.461 410.614 437.483 410.486 437.5C410.199 437.539 409.941 437.603 409.714 437.692C409.487 437.781 409.307 437.905 409.176 438.065C409.045 438.221 408.979 438.424 408.979 438.672C408.979 439.027 409.109 439.295 409.368 439.477C409.627 439.658 409.957 439.748 410.359 439.748ZM419.153 441.144C418.51 441.144 417.935 440.979 417.427 440.648C416.919 440.318 416.518 439.839 416.223 439.21C415.929 438.582 415.781 437.818 415.781 436.92C415.781 436.011 415.93 435.244 416.229 434.619C416.53 433.99 416.937 433.516 417.448 433.196C417.96 432.873 418.53 432.712 419.158 432.712C419.638 432.712 420.032 432.793 420.341 432.957C420.65 433.116 420.895 433.31 421.076 433.537C421.257 433.761 421.397 433.972 421.497 434.171H421.577V430.091H423.51V441H421.614V439.711H421.497C421.397 439.91 421.253 440.121 421.065 440.345C420.877 440.565 420.628 440.753 420.32 440.909C420.011 441.066 419.622 441.144 419.153 441.144ZM419.691 439.562C420.099 439.562 420.447 439.452 420.735 439.232C421.023 439.008 421.241 438.697 421.39 438.299C421.539 437.902 421.614 437.438 421.614 436.909C421.614 436.38 421.539 435.92 421.39 435.529C421.245 435.139 421.028 434.835 420.74 434.619C420.456 434.402 420.106 434.294 419.691 434.294C419.261 434.294 418.903 434.406 418.615 434.629C418.327 434.853 418.111 435.162 417.965 435.556C417.82 435.95 417.747 436.401 417.747 436.909C417.747 437.42 417.82 437.877 417.965 438.278C418.114 438.676 418.333 438.99 418.62 439.221C418.911 439.448 419.268 439.562 419.691 439.562ZM429.709 432.818V434.31H424.873V432.818H429.709ZM426.082 441V432.046C426.082 431.495 426.195 431.037 426.423 430.672C426.653 430.306 426.962 430.032 427.349 429.851C427.737 429.67 428.166 429.58 428.638 429.58C428.972 429.58 429.269 429.606 429.528 429.659C429.787 429.713 429.979 429.761 430.103 429.803L429.72 431.295C429.638 431.27 429.535 431.245 429.411 431.22C429.287 431.192 429.148 431.178 428.995 431.178C428.637 431.178 428.383 431.265 428.234 431.439C428.088 431.609 428.015 431.854 428.015 432.174V441H426.082ZM431.219 441V432.818H433.148V441H431.219ZM432.189 431.657C431.883 431.657 431.621 431.556 431.4 431.353C431.18 431.147 431.07 430.901 431.07 430.613C431.07 430.322 431.18 430.075 431.4 429.873C431.621 429.667 431.883 429.564 432.189 429.564C432.498 429.564 432.76 429.667 432.977 429.873C433.197 430.075 433.307 430.322 433.307 430.613C433.307 430.901 433.197 431.147 432.977 431.353C432.76 431.556 432.498 431.657 432.189 431.657ZM437.059 430.091V441H435.13V430.091H437.059ZM442.664 441.16C441.843 441.16 441.135 440.989 440.538 440.648C439.945 440.304 439.489 439.817 439.169 439.189C438.85 438.557 438.69 437.813 438.69 436.957C438.69 436.115 438.85 435.377 439.169 434.741C439.493 434.102 439.944 433.605 440.522 433.25C441.101 432.891 441.781 432.712 442.562 432.712C443.067 432.712 443.543 432.793 443.99 432.957C444.441 433.116 444.839 433.365 445.183 433.702C445.531 434.04 445.805 434.469 446.004 434.991C446.202 435.51 446.302 436.128 446.302 436.845V437.436H439.596V436.137H444.453C444.45 435.767 444.37 435.439 444.214 435.151C444.058 434.86 443.839 434.631 443.559 434.464C443.282 434.297 442.958 434.214 442.589 434.214C442.195 434.214 441.849 434.31 441.55 434.501C441.252 434.69 441.02 434.938 440.853 435.247C440.689 435.553 440.606 435.888 440.602 436.254V437.388C440.602 437.864 440.689 438.273 440.863 438.614C441.037 438.951 441.281 439.21 441.593 439.391C441.906 439.569 442.271 439.658 442.69 439.658C442.971 439.658 443.225 439.619 443.452 439.54C443.679 439.459 443.876 439.34 444.043 439.184C444.21 439.027 444.336 438.834 444.422 438.603L446.222 438.805C446.108 439.281 445.892 439.697 445.572 440.052C445.256 440.403 444.851 440.677 444.358 440.872C443.864 441.064 443.299 441.16 442.664 441.16ZM448.413 436.552C448.413 435.221 448.588 433.997 448.94 432.882C449.295 431.763 449.822 430.73 450.522 429.782H452.338C452.068 430.134 451.816 430.565 451.582 431.076C451.348 431.584 451.143 432.142 450.969 432.749C450.799 433.353 450.664 433.979 450.565 434.629C450.469 435.279 450.421 435.92 450.421 436.552C450.421 437.394 450.504 438.246 450.671 439.109C450.842 439.972 451.071 440.771 451.358 441.506C451.649 442.245 451.976 442.848 452.338 443.317H450.522C449.822 442.369 449.295 441.337 448.94 440.222C448.588 439.104 448.413 437.88 448.413 436.552ZM457.602 429.942C458.124 429.945 458.632 430.038 459.126 430.219C459.623 430.396 460.07 430.688 460.468 431.092C460.866 431.494 461.182 432.032 461.416 432.706C461.651 433.381 461.768 434.216 461.768 435.21C461.771 436.147 461.672 436.985 461.47 437.724C461.271 438.459 460.985 439.081 460.612 439.588C460.239 440.096 459.79 440.483 459.264 440.75C458.739 441.016 458.148 441.149 457.491 441.149C456.802 441.149 456.191 441.014 455.658 440.744C455.129 440.474 454.701 440.105 454.374 439.636C454.048 439.168 453.847 438.631 453.773 438.028H455.717C455.816 438.461 456.019 438.805 456.324 439.061C456.633 439.313 457.022 439.439 457.491 439.439C458.247 439.439 458.829 439.111 459.238 438.454C459.646 437.797 459.85 436.884 459.85 435.716H459.776C459.602 436.028 459.376 436.298 459.099 436.526C458.822 436.749 458.508 436.922 458.156 437.042C457.808 437.163 457.439 437.223 457.048 437.223C456.409 437.223 455.834 437.071 455.323 436.765C454.815 436.46 454.412 436.041 454.113 435.508C453.819 434.975 453.67 434.366 453.666 433.681C453.666 432.971 453.829 432.333 454.156 431.769C454.486 431.201 454.946 430.753 455.536 430.426C456.125 430.096 456.814 429.935 457.602 429.942ZM457.608 431.54C457.224 431.54 456.878 431.634 456.569 431.822C456.264 432.007 456.022 432.259 455.845 432.578C455.671 432.895 455.584 433.248 455.584 433.638C455.587 434.026 455.674 434.377 455.845 434.693C456.019 435.009 456.255 435.26 456.553 435.444C456.855 435.629 457.199 435.721 457.586 435.721C457.874 435.721 458.142 435.666 458.391 435.556C458.639 435.446 458.856 435.293 459.041 435.098C459.229 434.899 459.374 434.674 459.477 434.422C459.584 434.169 459.635 433.903 459.632 433.623C459.632 433.25 459.543 432.905 459.366 432.589C459.192 432.273 458.952 432.019 458.646 431.827C458.345 431.636 457.998 431.54 457.608 431.54ZM465.491 436.206V441H463.563V430.091H465.449V434.208H465.545C465.736 433.747 466.033 433.383 466.434 433.116C466.839 432.847 467.354 432.712 467.979 432.712C468.547 432.712 469.042 432.831 469.465 433.069C469.888 433.306 470.214 433.654 470.445 434.113C470.68 434.571 470.797 435.13 470.797 435.79V441H468.868V436.089C468.868 435.538 468.726 435.11 468.442 434.805C468.162 434.496 467.768 434.342 467.26 434.342C466.919 434.342 466.613 434.416 466.344 434.565C466.077 434.711 465.868 434.922 465.715 435.199C465.566 435.476 465.491 435.812 465.491 436.206ZM475.798 441.144C475.156 441.144 474.58 440.979 474.073 440.648C473.565 440.318 473.164 439.839 472.869 439.21C472.574 438.582 472.427 437.818 472.427 436.92C472.427 436.011 472.576 435.244 472.874 434.619C473.176 433.99 473.583 433.516 474.094 433.196C474.605 432.873 475.175 432.712 475.804 432.712C476.283 432.712 476.677 432.793 476.986 432.957C477.295 433.116 477.54 433.31 477.721 433.537C477.903 433.761 478.043 433.972 478.142 434.171H478.222V430.091H480.156V441H478.259V439.711H478.142C478.043 439.91 477.899 440.121 477.711 440.345C477.523 440.565 477.274 440.753 476.965 440.909C476.656 441.066 476.267 441.144 475.798 441.144ZM476.336 439.562C476.745 439.562 477.093 439.452 477.381 439.232C477.668 439.008 477.887 438.697 478.036 438.299C478.185 437.902 478.259 437.438 478.259 436.909C478.259 436.38 478.185 435.92 478.036 435.529C477.89 435.139 477.673 434.835 477.386 434.619C477.102 434.402 476.752 434.294 476.336 434.294C475.907 434.294 475.548 434.406 475.26 434.629C474.973 434.853 474.756 435.162 474.611 435.556C474.465 435.95 474.392 436.401 474.392 436.909C474.392 437.42 474.465 437.877 474.611 438.278C474.76 438.676 474.978 438.99 475.266 439.221C475.557 439.448 475.914 439.562 476.336 439.562ZM485.769 444.239C485.076 444.239 484.481 444.145 483.984 443.956C483.487 443.772 483.088 443.523 482.786 443.211C482.484 442.898 482.274 442.552 482.157 442.172L483.894 441.751C483.972 441.911 484.085 442.069 484.235 442.225C484.384 442.385 484.584 442.516 484.837 442.619C485.092 442.726 485.414 442.779 485.801 442.779C486.348 442.779 486.8 442.646 487.159 442.38C487.518 442.117 487.697 441.684 487.697 441.08V439.53H487.601C487.502 439.729 487.356 439.933 487.164 440.142C486.976 440.352 486.726 440.528 486.413 440.67C486.104 440.812 485.715 440.883 485.247 440.883C484.618 440.883 484.048 440.735 483.537 440.441C483.029 440.142 482.624 439.699 482.322 439.109C482.024 438.516 481.875 437.774 481.875 436.882C481.875 435.984 482.024 435.226 482.322 434.608C482.624 433.987 483.031 433.516 483.542 433.196C484.054 432.873 484.623 432.712 485.252 432.712C485.731 432.712 486.126 432.793 486.435 432.957C486.747 433.116 486.996 433.31 487.18 433.537C487.365 433.761 487.505 433.972 487.601 434.171H487.708V432.818H489.609V441.133C489.609 441.833 489.442 442.412 489.109 442.87C488.775 443.328 488.318 443.67 487.74 443.898C487.161 444.125 486.504 444.239 485.769 444.239ZM485.785 439.37C486.193 439.37 486.541 439.271 486.829 439.072C487.116 438.873 487.335 438.587 487.484 438.214C487.633 437.841 487.708 437.394 487.708 436.872C487.708 436.357 487.633 435.906 487.484 435.519C487.338 435.132 487.122 434.832 486.834 434.619C486.55 434.402 486.2 434.294 485.785 434.294C485.355 434.294 484.996 434.406 484.709 434.629C484.421 434.853 484.204 435.16 484.059 435.551C483.913 435.938 483.84 436.378 483.84 436.872C483.84 437.373 483.913 437.811 484.059 438.188C484.208 438.56 484.426 438.852 484.714 439.061C485.005 439.267 485.362 439.37 485.785 439.37ZM495.671 432.818V434.31H490.968V432.818H495.671ZM492.129 430.858H494.057V438.539C494.057 438.798 494.096 438.997 494.174 439.136C494.256 439.271 494.362 439.363 494.494 439.413C494.625 439.462 494.771 439.487 494.931 439.487C495.051 439.487 495.161 439.478 495.261 439.461C495.364 439.443 495.442 439.427 495.495 439.413L495.82 440.92C495.717 440.956 495.57 440.995 495.378 441.037C495.19 441.08 494.959 441.105 494.686 441.112C494.203 441.126 493.768 441.053 493.381 440.893C492.994 440.73 492.686 440.478 492.459 440.137C492.235 439.796 492.125 439.37 492.129 438.859V430.858ZM497.284 441V432.818H499.153V434.182H499.239C499.388 433.71 499.643 433.346 500.006 433.09C500.371 432.831 500.789 432.701 501.257 432.701C501.364 432.701 501.483 432.706 501.614 432.717C501.749 432.724 501.861 432.737 501.95 432.754V434.528C501.868 434.5 501.739 434.475 501.561 434.453C501.387 434.429 501.218 434.416 501.055 434.416C500.703 434.416 500.387 434.493 500.107 434.645C499.83 434.794 499.612 435.002 499.452 435.268C499.292 435.535 499.212 435.842 499.212 436.19V441H497.284ZM507.815 432.818V434.31H502.978V432.818H507.815ZM504.187 441V432.046C504.187 431.495 504.301 431.037 504.528 430.672C504.759 430.306 505.068 430.032 505.455 429.851C505.842 429.67 506.272 429.58 506.744 429.58C507.078 429.58 507.374 429.606 507.634 429.659C507.893 429.713 508.085 429.761 508.209 429.803L507.825 431.295C507.744 431.27 507.641 431.245 507.516 431.22C507.392 431.192 507.254 431.178 507.101 431.178C506.742 431.178 506.488 431.265 506.339 431.439C506.194 431.609 506.121 431.854 506.121 432.174V441H504.187ZM512.766 436.552C512.766 437.88 512.588 439.104 512.233 440.222C511.882 441.337 511.356 442.369 510.656 443.317H508.84C509.113 442.966 509.366 442.536 509.596 442.028C509.831 441.52 510.033 440.963 510.204 440.355C510.378 439.748 510.513 439.12 510.608 438.47C510.708 437.82 510.758 437.181 510.758 436.552C510.758 435.711 510.672 434.858 510.502 433.995C510.335 433.132 510.106 432.332 509.815 431.593C509.527 430.854 509.202 430.251 508.84 429.782H510.656C511.356 430.73 511.882 431.763 512.233 432.882C512.588 433.997 512.766 435.221 512.766 436.552ZM516.416 441.117C516.093 441.117 515.816 441.004 515.585 440.776C515.354 440.549 515.241 440.272 515.244 439.945C515.241 439.626 515.354 439.352 515.585 439.125C515.816 438.898 516.093 438.784 516.416 438.784C516.728 438.784 517 438.898 517.231 439.125C517.465 439.352 517.584 439.626 517.588 439.945C517.584 440.162 517.527 440.359 517.417 440.537C517.311 440.714 517.169 440.856 516.991 440.963C516.817 441.066 516.625 441.117 516.416 441.117ZM519.579 432.818H521.507V441.469C521.507 442.058 521.395 442.545 521.171 442.928C520.948 443.312 520.624 443.598 520.202 443.786C519.779 443.974 519.266 444.068 518.662 444.068C518.591 444.068 518.526 444.066 518.465 444.063C518.405 444.063 518.339 444.061 518.268 444.058V442.486C518.322 442.49 518.369 442.491 518.412 442.491C518.455 442.495 518.499 442.497 518.545 442.497C518.915 442.497 519.179 442.406 519.339 442.225C519.499 442.048 519.579 441.787 519.579 441.442V432.818ZM520.537 431.657C520.229 431.657 519.964 431.556 519.744 431.353C519.527 431.147 519.419 430.901 519.419 430.613C519.419 430.322 519.527 430.075 519.744 429.873C519.964 429.667 520.229 429.564 520.537 429.564C520.843 429.564 521.104 429.667 521.32 429.873C521.541 430.075 521.651 430.322 521.651 430.613C521.651 430.901 521.541 431.147 521.32 431.353C521.104 431.556 520.843 431.657 520.537 431.657ZM523.49 444.068V432.818H525.386V434.171H525.498C525.597 433.972 525.738 433.761 525.919 433.537C526.1 433.31 526.345 433.116 526.654 432.957C526.963 432.793 527.357 432.712 527.836 432.712C528.468 432.712 529.038 432.873 529.546 433.196C530.058 433.516 530.462 433.99 530.761 434.619C531.063 435.244 531.214 436.011 531.214 436.92C531.214 437.818 531.066 438.582 530.771 439.21C530.477 439.839 530.075 440.318 529.568 440.648C529.06 440.979 528.484 441.144 527.842 441.144C527.373 441.144 526.984 441.066 526.675 440.909C526.366 440.753 526.118 440.565 525.929 440.345C525.745 440.121 525.601 439.91 525.498 439.711H525.418V444.068H523.49ZM525.381 436.909C525.381 437.438 525.455 437.902 525.604 438.299C525.757 438.697 525.976 439.008 526.26 439.232C526.547 439.452 526.895 439.562 527.304 439.562C527.73 439.562 528.087 439.448 528.374 439.221C528.662 438.99 528.879 438.676 529.024 438.278C529.173 437.877 529.248 437.42 529.248 436.909C529.248 436.401 529.175 435.95 529.03 435.556C528.884 435.162 528.667 434.853 528.38 434.629C528.092 434.406 527.733 434.294 527.304 434.294C526.892 434.294 526.542 434.402 526.254 434.619C525.967 434.835 525.748 435.139 525.599 435.529C525.454 435.92 525.381 436.38 525.381 436.909ZM536.423 444.239C535.731 444.239 535.136 444.145 534.639 443.956C534.141 443.772 533.742 443.523 533.44 443.211C533.138 442.898 532.929 442.552 532.812 442.172L534.548 441.751C534.626 441.911 534.74 442.069 534.889 442.225C535.038 442.385 535.239 442.516 535.491 442.619C535.747 442.726 536.068 442.779 536.455 442.779C537.002 442.779 537.455 442.646 537.813 442.38C538.172 442.117 538.351 441.684 538.351 441.08V439.53H538.255C538.156 439.729 538.01 439.933 537.819 440.142C537.63 440.352 537.38 440.528 537.068 440.67C536.759 440.812 536.37 440.883 535.901 440.883C535.272 440.883 534.703 440.735 534.191 440.441C533.683 440.142 533.278 439.699 532.977 439.109C532.678 438.516 532.529 437.774 532.529 436.882C532.529 435.984 532.678 435.226 532.977 434.608C533.278 433.987 533.685 433.516 534.196 433.196C534.708 432.873 535.278 432.712 535.906 432.712C536.386 432.712 536.78 432.793 537.089 432.957C537.401 433.116 537.65 433.31 537.835 433.537C538.019 433.761 538.16 433.972 538.255 434.171H538.362V432.818H540.264V441.133C540.264 441.833 540.097 442.412 539.763 442.87C539.429 443.328 538.973 443.67 538.394 443.898C537.815 444.125 537.158 444.239 536.423 444.239ZM536.439 439.37C536.847 439.37 537.195 439.271 537.483 439.072C537.771 438.873 537.989 438.587 538.138 438.214C538.287 437.841 538.362 437.394 538.362 436.872C538.362 436.357 538.287 435.906 538.138 435.519C537.993 435.132 537.776 434.832 537.488 434.619C537.204 434.402 536.854 434.294 536.439 434.294C536.009 434.294 535.651 434.406 535.363 434.629C535.075 434.853 534.859 435.16 534.713 435.551C534.568 435.938 534.495 436.378 534.495 436.872C534.495 437.373 534.568 437.811 534.713 438.188C534.862 438.56 535.081 438.852 535.368 439.061C535.66 439.267 536.016 439.37 536.439 439.37Z" fill="#CFCFCF"/>
<path d="M808.076 441V430.091H812.167C813.005 430.091 813.708 430.237 814.276 430.528C814.848 430.819 815.279 431.227 815.571 431.753C815.865 432.275 816.013 432.884 816.013 433.58C816.013 434.279 815.864 434.887 815.565 435.402C815.271 435.913 814.836 436.309 814.26 436.589C813.685 436.866 812.978 437.005 812.14 437.005H809.227V435.364H811.874C812.364 435.364 812.765 435.297 813.078 435.162C813.39 435.023 813.621 434.823 813.77 434.56C813.923 434.294 813.999 433.967 813.999 433.58C813.999 433.193 813.923 432.863 813.77 432.589C813.618 432.312 813.385 432.103 813.072 431.961C812.76 431.815 812.357 431.742 811.863 431.742H810.052V441H808.076ZM813.712 436.057L816.412 441H814.207L811.554 436.057H813.712ZM821.252 441.16C820.431 441.16 819.723 440.989 819.126 440.648C818.533 440.304 818.077 439.817 817.757 439.189C817.438 438.557 817.278 437.813 817.278 436.957C817.278 436.115 817.438 435.377 817.757 434.741C818.08 434.102 818.531 433.605 819.11 433.25C819.689 432.891 820.369 432.712 821.15 432.712C821.655 432.712 822.131 432.793 822.578 432.957C823.029 433.116 823.427 433.365 823.771 433.702C824.119 434.04 824.393 434.469 824.591 434.991C824.79 435.51 824.89 436.128 824.89 436.845V437.436H818.183V436.137H823.041C823.038 435.767 822.958 435.439 822.802 435.151C822.645 434.86 822.427 434.631 822.146 434.464C821.869 434.297 821.546 434.214 821.177 434.214C820.783 434.214 820.437 434.31 820.138 434.501C819.84 434.69 819.607 434.938 819.441 435.247C819.277 435.553 819.194 435.888 819.19 436.254V437.388C819.19 437.864 819.277 438.273 819.451 438.614C819.625 438.951 819.868 439.21 820.181 439.391C820.493 439.569 820.859 439.658 821.278 439.658C821.559 439.658 821.813 439.619 822.04 439.54C822.267 439.459 822.464 439.34 822.631 439.184C822.798 439.027 822.924 438.834 823.009 438.603L824.81 438.805C824.696 439.281 824.48 439.697 824.16 440.052C823.844 440.403 823.439 440.677 822.945 440.872C822.452 441.064 821.887 441.16 821.252 441.16ZM826.521 441V432.818H828.364V434.208H828.46C828.63 433.74 828.913 433.374 829.307 433.111C829.701 432.845 830.172 432.712 830.718 432.712C831.272 432.712 831.739 432.847 832.119 433.116C832.503 433.383 832.773 433.747 832.929 434.208H833.014C833.195 433.754 833.501 433.392 833.93 433.122C834.364 432.848 834.877 432.712 835.47 432.712C836.223 432.712 836.837 432.95 837.313 433.425C837.789 433.901 838.027 434.596 838.027 435.508V441H836.093V435.806C836.093 435.299 835.958 434.928 835.688 434.693C835.418 434.455 835.088 434.336 834.698 434.336C834.232 434.336 833.868 434.482 833.606 434.773C833.346 435.061 833.217 435.435 833.217 435.897V441H831.326V435.727C831.326 435.304 831.198 434.967 830.942 434.714C830.69 434.462 830.36 434.336 829.951 434.336C829.674 434.336 829.422 434.407 829.195 434.549C828.968 434.688 828.787 434.885 828.652 435.141C828.517 435.393 828.449 435.687 828.449 436.025V441H826.521ZM843.552 441.16C842.753 441.16 842.06 440.984 841.474 440.632C840.888 440.281 840.434 439.789 840.111 439.157C839.791 438.525 839.631 437.786 839.631 436.941C839.631 436.096 839.791 435.355 840.111 434.72C840.434 434.084 840.888 433.591 841.474 433.239C842.06 432.887 842.753 432.712 843.552 432.712C844.351 432.712 845.043 432.887 845.629 433.239C846.215 433.591 846.668 434.084 846.988 434.72C847.311 435.355 847.472 436.096 847.472 436.941C847.472 437.786 847.311 438.525 846.988 439.157C846.668 439.789 846.215 440.281 845.629 440.632C845.043 440.984 844.351 441.16 843.552 441.16ZM843.562 439.615C843.996 439.615 844.358 439.496 844.649 439.258C844.94 439.017 845.157 438.694 845.299 438.289C845.445 437.884 845.517 437.433 845.517 436.936C845.517 436.435 845.445 435.982 845.299 435.577C845.157 435.169 844.94 434.844 844.649 434.603C844.358 434.361 843.996 434.24 843.562 434.24C843.119 434.24 842.749 434.361 842.455 434.603C842.163 434.844 841.945 435.169 841.799 435.577C841.657 435.982 841.586 436.435 841.586 436.936C841.586 437.433 841.657 437.884 841.799 438.289C841.945 438.694 842.163 439.017 842.455 439.258C842.749 439.496 843.119 439.615 843.562 439.615ZM856.139 432.818L853.225 441H851.094L848.181 432.818H850.237L852.117 438.896H852.202L854.088 432.818H856.139ZM860.817 441.16C859.997 441.16 859.288 440.989 858.692 440.648C858.099 440.304 857.642 439.817 857.323 439.189C857.003 438.557 856.843 437.813 856.843 436.957C856.843 436.115 857.003 435.377 857.323 434.741C857.646 434.102 858.097 433.605 858.676 433.25C859.255 432.891 859.935 432.712 860.716 432.712C861.22 432.712 861.696 432.793 862.143 432.957C862.594 433.116 862.992 433.365 863.337 433.702C863.685 434.04 863.958 434.469 864.157 434.991C864.356 435.51 864.455 436.128 864.455 436.845V437.436H857.749V436.137H862.607C862.603 435.767 862.523 435.439 862.367 435.151C862.211 434.86 861.992 434.631 861.712 434.464C861.435 434.297 861.112 434.214 860.742 434.214C860.348 434.214 860.002 434.31 859.704 434.501C859.405 434.69 859.173 434.938 859.006 435.247C858.843 435.553 858.759 435.888 858.756 436.254V437.388C858.756 437.864 858.843 438.273 859.017 438.614C859.191 438.951 859.434 439.21 859.746 439.391C860.059 439.569 860.425 439.658 860.844 439.658C861.124 439.658 861.378 439.619 861.605 439.54C861.833 439.459 862.03 439.34 862.197 439.184C862.364 439.027 862.49 438.834 862.575 438.603L864.375 438.805C864.262 439.281 864.045 439.697 863.725 440.052C863.409 440.403 863.005 440.677 862.511 440.872C862.017 441.064 861.453 441.16 860.817 441.16Z" fill="#F12525"/>
<rect x="667" y="475" width="211" height="45" rx="6" fill="#692424"/>
<path d="M718.953 493.091H720.929V500.218C720.929 500.999 720.744 501.686 720.375 502.279C720.009 502.873 719.494 503.336 718.83 503.67C718.166 504 717.39 504.165 716.502 504.165C715.611 504.165 714.833 504 714.169 503.67C713.505 503.336 712.99 502.873 712.625 502.279C712.259 501.686 712.076 500.999 712.076 500.218V493.091H714.052V500.053C714.052 500.507 714.152 500.912 714.35 501.267C714.553 501.623 714.837 501.901 715.203 502.104C715.569 502.303 716.002 502.402 716.502 502.402C717.003 502.402 717.436 502.303 717.802 502.104C718.172 501.901 718.456 501.623 718.654 501.267C718.853 500.912 718.953 500.507 718.953 500.053V493.091ZM722.992 507.068V495.818H724.888V497.171H725C725.099 496.972 725.24 496.761 725.421 496.537C725.602 496.31 725.847 496.116 726.156 495.957C726.465 495.793 726.859 495.712 727.338 495.712C727.97 495.712 728.54 495.873 729.048 496.196C729.56 496.516 729.964 496.99 730.263 497.619C730.565 498.244 730.715 499.011 730.715 499.92C730.715 500.818 730.568 501.582 730.273 502.21C729.979 502.839 729.577 503.318 729.07 503.648C728.562 503.979 727.986 504.144 727.344 504.144C726.875 504.144 726.486 504.066 726.177 503.909C725.868 503.753 725.62 503.565 725.431 503.345C725.247 503.121 725.103 502.91 725 502.711H724.92V507.068H722.992ZM724.883 499.909C724.883 500.438 724.957 500.902 725.106 501.299C725.259 501.697 725.478 502.008 725.762 502.232C726.049 502.452 726.397 502.562 726.806 502.562C727.232 502.562 727.589 502.448 727.876 502.221C728.164 501.99 728.381 501.676 728.526 501.278C728.675 500.877 728.75 500.42 728.75 499.909C728.75 499.401 728.677 498.95 728.532 498.556C728.386 498.162 728.169 497.853 727.882 497.629C727.594 497.406 727.235 497.294 726.806 497.294C726.394 497.294 726.044 497.402 725.756 497.619C725.469 497.835 725.25 498.139 725.101 498.529C724.956 498.92 724.883 499.38 724.883 499.909ZM734.295 493.091V504H732.367V493.091H734.295ZM739.847 504.16C739.048 504.16 738.355 503.984 737.769 503.632C737.183 503.281 736.729 502.789 736.406 502.157C736.086 501.525 735.926 500.786 735.926 499.941C735.926 499.096 736.086 498.355 736.406 497.72C736.729 497.084 737.183 496.591 737.769 496.239C738.355 495.887 739.048 495.712 739.847 495.712C740.646 495.712 741.338 495.887 741.924 496.239C742.51 496.591 742.963 497.084 743.282 497.72C743.606 498.355 743.767 499.096 743.767 499.941C743.767 500.786 743.606 501.525 743.282 502.157C742.963 502.789 742.51 503.281 741.924 503.632C741.338 503.984 740.646 504.16 739.847 504.16ZM739.857 502.615C740.291 502.615 740.653 502.496 740.944 502.258C741.235 502.017 741.452 501.694 741.594 501.289C741.74 500.884 741.812 500.433 741.812 499.936C741.812 499.435 741.74 498.982 741.594 498.577C741.452 498.169 741.235 497.844 740.944 497.603C740.653 497.361 740.291 497.24 739.857 497.24C739.414 497.24 739.044 497.361 738.749 497.603C738.458 497.844 738.24 498.169 738.094 498.577C737.952 498.982 737.881 499.435 737.881 499.936C737.881 500.433 737.952 500.884 738.094 501.289C738.24 501.694 738.458 502.017 738.749 502.258C739.044 502.496 739.414 502.615 739.857 502.615ZM747.758 504.165C747.24 504.165 746.773 504.073 746.357 503.888C745.945 503.7 745.619 503.423 745.377 503.057C745.139 502.691 745.02 502.24 745.02 501.704C745.02 501.243 745.106 500.861 745.276 500.559C745.446 500.257 745.679 500.016 745.974 499.835C746.269 499.653 746.601 499.517 746.97 499.424C747.343 499.328 747.728 499.259 748.126 499.217C748.605 499.167 748.994 499.123 749.292 499.083C749.591 499.041 749.807 498.977 749.942 498.892C750.081 498.803 750.15 498.666 750.15 498.482V498.45C750.15 498.048 750.031 497.738 749.793 497.517C749.555 497.297 749.212 497.187 748.765 497.187C748.293 497.187 747.918 497.29 747.641 497.496C747.368 497.702 747.183 497.945 747.087 498.226L745.287 497.97C745.429 497.473 745.663 497.058 745.99 496.724C746.316 496.386 746.716 496.134 747.188 495.967C747.661 495.797 748.183 495.712 748.754 495.712C749.149 495.712 749.541 495.758 749.932 495.85C750.322 495.942 750.679 496.095 751.002 496.308C751.325 496.518 751.585 496.804 751.78 497.166C751.979 497.528 752.078 497.981 752.078 498.524V504H750.225V502.876H750.161C750.043 503.103 749.878 503.316 749.665 503.515C749.456 503.711 749.191 503.869 748.872 503.989C748.555 504.107 748.184 504.165 747.758 504.165ZM748.259 502.748C748.646 502.748 748.982 502.672 749.266 502.519C749.55 502.363 749.768 502.157 749.921 501.901C750.077 501.646 750.155 501.367 750.155 501.065V500.101C750.095 500.151 749.992 500.197 749.846 500.239C749.704 500.282 749.544 500.319 749.367 500.351C749.189 500.383 749.014 500.412 748.84 500.436C748.666 500.461 748.515 500.483 748.387 500.5C748.099 500.539 747.842 500.603 747.614 500.692C747.387 500.781 747.208 500.905 747.076 501.065C746.945 501.221 746.879 501.424 746.879 501.672C746.879 502.027 747.009 502.295 747.268 502.477C747.527 502.658 747.858 502.748 748.259 502.748ZM757.053 504.144C756.411 504.144 755.835 503.979 755.328 503.648C754.82 503.318 754.418 502.839 754.124 502.21C753.829 501.582 753.682 500.818 753.682 499.92C753.682 499.011 753.831 498.244 754.129 497.619C754.431 496.99 754.837 496.516 755.349 496.196C755.86 495.873 756.43 495.712 757.059 495.712C757.538 495.712 757.932 495.793 758.241 495.957C758.55 496.116 758.795 496.31 758.976 496.537C759.157 496.761 759.298 496.972 759.397 497.171H759.477V493.091H761.411V504H759.514V502.711H759.397C759.298 502.91 759.154 503.121 758.966 503.345C758.777 503.565 758.529 503.753 758.22 503.909C757.911 504.066 757.522 504.144 757.053 504.144ZM757.591 502.562C758 502.562 758.348 502.452 758.635 502.232C758.923 502.008 759.141 501.697 759.291 501.299C759.44 500.902 759.514 500.438 759.514 499.909C759.514 499.38 759.44 498.92 759.291 498.529C759.145 498.139 758.928 497.835 758.641 497.619C758.357 497.402 758.007 497.294 757.591 497.294C757.162 497.294 756.803 497.406 756.515 497.629C756.228 497.853 756.011 498.162 755.866 498.556C755.72 498.95 755.647 499.401 755.647 499.909C755.647 500.42 755.72 500.877 755.866 501.278C756.015 501.676 756.233 501.99 756.521 502.221C756.812 502.448 757.169 502.562 757.591 502.562ZM767.271 493.091H769.69L772.928 500.996H773.056L776.295 493.091H778.713V504H776.817V496.505H776.716L773.701 503.968H772.284L769.269 496.489H769.168V504H767.271V493.091ZM784.402 504.16C783.582 504.16 782.873 503.989 782.277 503.648C781.684 503.304 781.227 502.817 780.908 502.189C780.588 501.557 780.428 500.813 780.428 499.957C780.428 499.115 780.588 498.377 780.908 497.741C781.231 497.102 781.682 496.605 782.261 496.25C782.839 495.891 783.52 495.712 784.301 495.712C784.805 495.712 785.281 495.793 785.728 495.957C786.179 496.116 786.577 496.365 786.922 496.702C787.27 497.04 787.543 497.469 787.742 497.991C787.941 498.51 788.04 499.128 788.04 499.845V500.436H781.334V499.137H786.192C786.188 498.767 786.108 498.439 785.952 498.151C785.796 497.86 785.577 497.631 785.297 497.464C785.02 497.297 784.697 497.214 784.327 497.214C783.933 497.214 783.587 497.31 783.289 497.501C782.99 497.69 782.758 497.938 782.591 498.247C782.428 498.553 782.344 498.888 782.341 499.254V500.388C782.341 500.864 782.428 501.273 782.602 501.614C782.776 501.951 783.019 502.21 783.331 502.391C783.644 502.569 784.01 502.658 784.429 502.658C784.709 502.658 784.963 502.619 785.19 502.54C785.418 502.459 785.615 502.34 785.782 502.184C785.949 502.027 786.075 501.834 786.16 501.603L787.96 501.805C787.847 502.281 787.63 502.697 787.31 503.052C786.994 503.403 786.589 503.677 786.096 503.872C785.602 504.064 785.038 504.16 784.402 504.16ZM789.671 504V495.818H791.514V497.208H791.61C791.781 496.74 792.063 496.374 792.457 496.111C792.851 495.845 793.322 495.712 793.869 495.712C794.423 495.712 794.89 495.847 795.27 496.116C795.653 496.383 795.923 496.747 796.079 497.208H796.165C796.346 496.754 796.651 496.392 797.081 496.122C797.514 495.848 798.027 495.712 798.62 495.712C799.373 495.712 799.987 495.95 800.463 496.425C800.939 496.901 801.177 497.596 801.177 498.508V504H799.244V498.806C799.244 498.299 799.109 497.928 798.839 497.693C798.569 497.455 798.239 497.336 797.848 497.336C797.383 497.336 797.019 497.482 796.756 497.773C796.497 498.061 796.367 498.435 796.367 498.897V504H794.476V498.727C794.476 498.304 794.348 497.967 794.093 497.714C793.84 497.462 793.51 497.336 793.102 497.336C792.825 497.336 792.573 497.407 792.345 497.549C792.118 497.688 791.937 497.885 791.802 498.141C791.667 498.393 791.6 498.687 791.6 499.025V504H789.671ZM803.133 504V495.818H805.003V497.182H805.088C805.237 496.71 805.493 496.346 805.855 496.09C806.221 495.831 806.638 495.701 807.107 495.701C807.214 495.701 807.333 495.706 807.464 495.717C807.599 495.724 807.711 495.737 807.8 495.754V497.528C807.718 497.5 807.588 497.475 807.411 497.453C807.237 497.429 807.068 497.416 806.905 497.416C806.553 497.416 806.237 497.493 805.956 497.645C805.68 497.794 805.461 498.002 805.301 498.268C805.142 498.535 805.062 498.842 805.062 499.19V504H803.133ZM809.081 504V495.818H811.009V504H809.081ZM810.05 494.657C809.745 494.657 809.482 494.556 809.262 494.353C809.042 494.147 808.931 493.901 808.931 493.613C808.931 493.322 809.042 493.075 809.262 492.873C809.482 492.667 809.745 492.564 810.05 492.564C810.359 492.564 810.622 492.667 810.838 492.873C811.059 493.075 811.169 493.322 811.169 493.613C811.169 493.901 811.059 494.147 810.838 494.353C810.622 494.556 810.359 494.657 810.05 494.657ZM814.92 499.206V504H812.992V495.818H814.835V497.208H814.931C815.119 496.75 815.419 496.386 815.831 496.116C816.246 495.847 816.759 495.712 817.37 495.712C817.935 495.712 818.427 495.832 818.846 496.074C819.268 496.315 819.595 496.665 819.826 497.123C820.06 497.581 820.176 498.137 820.172 498.79V504H818.244V499.089C818.244 498.542 818.102 498.114 817.818 497.805C817.537 497.496 817.148 497.342 816.651 497.342C816.314 497.342 816.014 497.416 815.751 497.565C815.492 497.711 815.288 497.922 815.138 498.199C814.993 498.476 814.92 498.812 814.92 499.206ZM825.701 504.16C824.884 504.16 824.183 503.98 823.597 503.622C823.015 503.263 822.566 502.768 822.25 502.136C821.937 501.5 821.781 500.768 821.781 499.941C821.781 499.11 821.941 498.377 822.26 497.741C822.58 497.102 823.031 496.605 823.613 496.25C824.199 495.891 824.892 495.712 825.691 495.712C826.355 495.712 826.942 495.834 827.454 496.079C827.969 496.321 828.379 496.663 828.684 497.107C828.99 497.548 829.164 498.062 829.206 498.652H827.363C827.289 498.258 827.111 497.929 826.831 497.667C826.554 497.4 826.182 497.267 825.717 497.267C825.323 497.267 824.977 497.374 824.679 497.587C824.38 497.796 824.148 498.098 823.981 498.492C823.817 498.886 823.736 499.359 823.736 499.909C823.736 500.467 823.817 500.946 823.981 501.347C824.144 501.745 824.373 502.052 824.668 502.269C824.966 502.482 825.316 502.588 825.717 502.588C826.001 502.588 826.255 502.535 826.479 502.429C826.706 502.319 826.896 502.161 827.049 501.955C827.202 501.749 827.306 501.498 827.363 501.203H829.206C829.16 501.782 828.99 502.295 828.695 502.743C828.4 503.187 827.999 503.535 827.491 503.787C826.983 504.036 826.387 504.16 825.701 504.16Z" fill="white"/>
</svg>
