<!DOCTYPE svg PUBLIC "-//W3C//DTD SVG 1.1//EN" "http://www.w3.org/Graphics/SVG/1.1/DTD/svg11.dtd">
<!-- Uploaded to: SVG Repo, www.svgrepo.com, Transformed by: SVG Repo Mixer Tools -->
<svg fill="#92e864" width="800px" height="800px" viewBox="0 0 24 24" id="up-trend-round" data-name="Flat Color" xmlns="http://www.w3.org/2000/svg" class="icon flat-color">
<g id="SVGRepo_bgCarrier" stroke-width="0"/>
<g id="SVGRepo_tracerCarrier" stroke-linecap="round" stroke-linejoin="round"/>
<g id="SVGRepo_iconCarrier">
<path id="primary" d="M21,6H17a1,1,0,0,0,0,2h1.59L13.5,13.09,10.91,10.5a2,2,0,0,0-2.82,0l-5.8,5.79a1,1,0,0,0,0,1.42,1,1,0,0,0,1.42,0l5.79-5.8,2.59,2.59a2,2,0,0,0,2.82,0L20,9.41V11a1,1,0,0,0,2,0V7A1,1,0,0,0,21,6Z" style="fill: #48d577;"/>
</g>
</svg>